<?xml version="1.0" encoding="utf-8"?>
<!-- Generator: Adobe Illustrator 16.0.0, SVG Export Plug-In . SVG Version: 6.00 Build 0)  -->
<!DOCTYPE svg PUBLIC "-//W3C//DTD SVG 1.1//EN" "http://www.w3.org/Graphics/SVG/1.1/DTD/svg11.dtd">
<svg version="1.1" id="login_x5F_no_xA0_이미지_1_"
	 xmlns="http://www.w3.org/2000/svg" xmlns:xlink="http://www.w3.org/1999/xlink" x="0px" y="0px" width="102.857px"
	 height="102.857px" viewBox="0 0 102.857 102.857" enable-background="new 0 0 102.857 102.857" xml:space="preserve">
<g>
	<defs>
		<rect id="SVGID_1_" width="102.857" height="102.857"/>
	</defs>
	<clipPath id="SVGID_2_">
		<use xlink:href="#SVGID_1_"  overflow="visible"/>
	</clipPath>
	<g clip-path="url(#SVGID_2_)">
		<path fill-rule="evenodd" clip-rule="evenodd" fill="#644777" d="M29.161,67.466c-0.181-0.547-0.663-0.86-0.997-1.288
			c-3.302-4.227-3.973-9.04-3.144-14.173c0.632-3.916,2.33-7.333,5.03-10.231c1.531-1.644,3.272-3.019,5.466-3.69
			c0.404-0.124,0.509-0.287,0.504-0.716c-0.029-2.289,0.86-4.12,2.848-5.336c0.315-0.193,0.368-0.305,0.253-0.691
			c-0.904-3.067,0.898-7.119,3.824-8.536c3.729-1.805,7.416-1.605,10.771,0.8c2.638,1.89,4.421,6.217,2.336,9.349
			c-0.38,0.571-0.235,0.798,0.313,1.149c1.771,1.136,3.037,3.467,1.873,5.655c-0.217,0.407,0.028,0.554,0.257,0.75
			c3.285,2.818,5.588,6.335,7.28,10.276c0.321,0.75,0.548,1.555,0.7,2.358c0.355,1.875,1.112,3.56,2.143,5.155
			c0.796,1.232,1.611,2.49,1.714,4.017c0.174,2.593-1.003,4.039-4.229,5.306c-3.378,1.325-6.946,2.043-10.585,2.322
			c-1.293,0.099-2.58,0.271-3.87,0.41c-2.041-0.031-4.076,0.149-6.111,0.188c-3.131,0.059-6.268-0.087-9.4-0.2
			c-0.844-0.031-1.682-0.249-2.52-0.4C31.854,69.619,30.367,68.793,29.161,67.466z M49.994,23.672
			c-1.286-0.46-2.585-0.35-3.929-0.27c-2.711,0.162-4.389,1.518-5.223,4.003c-0.604,1.802-0.891,3.606,0.66,5.152
			c0.122,0.121,0.276,0.285,0.139,0.433c-0.089,0.096-0.312,0.108-0.469,0.093c-1.662-0.156-3.074,0.696-3.585,2.178
			c-0.528,1.531,0.601,3.477,2.454,4.18c1.894,0.719,3.905,0.503,5.864,0.698c2.455,0.588,4.928,0.95,7.468,0.819
			c0.992-0.051,1.882-0.311,2.712-0.81c0.775-0.467,1.286-1.149,1.275-2.084c-0.014-1.189-1.579-3.013-2.758-3.29
			c-1.041-0.245-1.021-0.229-0.335-1.11c0.566-0.728,1.091-1.494,1.285-2.422C56.255,27.888,53.587,24.258,49.994,23.672z
			 M38.132,40.089c-0.757-0.302-1.04-1.48-2.008-1.27c-0.856,0.185-1.666,0.614-2.414,1.11c-0.057,0.038-0.111,0.08-0.167,0.119
			c-8.097,5.585-8.975,16.821-5.692,23.186c1.5,2.91,3.815,4.817,7.066,5.413c2.192,0.402,4.419,0.479,6.653,0.515
			c4.703,0.074,9.375-0.382,14.057-0.688c3.54-0.231,6.95-1.106,10.237-2.362c2.353-0.899,4.195-3.186,1.907-6.336
			c-0.926-1.275-1.618-2.688-1.945-4.267c-1.177-5.666-4.241-10.247-8.267-14.269c-0.232-0.232-0.473-0.466-0.782-0.179
			c-0.82,0.756-1.91,0.862-2.886,1.241c-1.258,0.098-2.509,0.16-3.77-0.053c-2.244-0.378-4.412-1.169-6.704-1.26
			C41.612,40.916,39.8,40.943,38.132,40.089z"/>
		<path fill-rule="evenodd" clip-rule="evenodd" fill="#EB2A58" d="M20.141,27.135c-0.067,0.874,0.395,1.637,0.516,2.478
			c0.122,0.845,0.244,1.672-0.516,2.258c-0.783,0.604-1.63,0.389-2.412-0.042c-2.271-1.25-4.195-2.941-5.997-4.783
			c-0.229-0.235-0.455-0.475-0.847-0.885c0.142,2.469,0.554,4.639,0.923,6.813c0.023,0.135,0.065,0.266,0.084,0.401
			c0.101,0.741,0.153,1.501-0.734,1.799c-0.97,0.326-1.492-0.317-1.823-1.074c-0.668-1.522-0.826-3.172-1.023-4.798
			C8.04,27.059,7.938,24.8,8.082,22.539c0.021-0.34,0.076-0.681,0.145-1.016c0.102-0.495,0.443-0.766,0.922-0.84
			c0.448-0.07,0.8,0.134,1.048,0.5c1.787,2.629,4.101,4.738,6.581,6.684c0.073,0.039,0.169,0.128,0.213,0.107
			c0.14-0.067,0.078-0.191,0.031-0.299c-0.71-2.253-1.625-4.426-2.603-6.573c-0.323-0.709-0.394-1.392,0.219-1.986
			c0.769-0.747,1.879-0.48,2.42,0.628c1.037,2.123,1.854,4.337,2.653,6.558c0.108,0.302,0.091,0.675,0.446,0.85L20.141,27.135z"/>
		<path fill-rule="evenodd" clip-rule="evenodd" fill="#EB2B58" d="M20.156,27.152c-0.167-1.617-0.497-3.219-0.216-4.865
			c0.272-1.592,0.609-3.137,1.499-4.531c0.889-1.393,2.172-1.68,3.652-1.415c2.739,0.491,4.705,2.735,4.842,5.71
			c0.124,2.667-0.659,5.06-2.676,6.943c-2.433,2.272-5.246,1.748-6.686-1.245c-0.106-0.22-0.073-0.561-0.43-0.614
			C20.141,27.135,20.156,27.152,20.156,27.152z M27.179,22.873c-0.013-2.605-1.466-3.934-3.716-3.784
			c-0.528,0.036-0.722,0.24-0.801,0.701c-0.219,1.28-0.446,2.562-0.404,3.866c0.036,1.098,0.188,2.183,0.725,3.167
			c0.595,1.091,1.276,1.209,2.209,0.399C26.612,25.992,27.121,24.373,27.179,22.873z"/>
		<path fill-rule="evenodd" clip-rule="evenodd" fill="#674A79" d="M76.828,61.925c-0.011-0.032-0.015-0.069-0.033-0.097
			c-2.712-3.887-1.923-7.954,2.096-10.599c2.796-1.84,5.844-1.925,8.839-0.756c1.835,0.717,2.859,2.434,3.29,4.341
			c0.312,1.378,0.861,2.561,1.807,3.599c0.699,0.768,0.567,1.644,0.111,2.478c-0.403,0.739-1.037,1.315-1.78,1.645
			c-1.648,0.731-3.423,1.071-5.179,1.452c-1.662-0.002-3.331-0.092-4.986,0.021c-1.566,0.106-2.81-0.234-3.594-1.689
			C77.284,62.108,77.078,61.97,76.828,61.925z M83.452,63.03c2.282,0.021,4.506-0.302,6.646-1.104
			c2.063-0.773,2.41-1.561,1.433-3.514c-0.631-1.26-1.088-2.548-1.469-3.907c-0.423-1.504-1.359-2.802-2.938-3.354
			c-4.327-1.516-8.251-0.294-10.248,3.943c-0.633,1.342-1.025,2.819-0.257,4.252c0.563,1.051,1.286,2.015,1.939,3.017
			c0.187,0.286,0.474,0.364,0.795,0.386C80.721,62.84,82.087,62.937,83.452,63.03z"/>
		<path fill-rule="evenodd" clip-rule="evenodd" fill="#116788" d="M29.161,67.466c1.207,1.327,2.693,2.153,4.457,2.473
			c0.837,0.151,1.676,0.369,2.52,0.4c3.132,0.113,6.269,0.259,9.4,0.2c2.035-0.038,4.07-0.219,6.111-0.188
			c-2.26,0.671-4.556,1.141-6.917,1.27c-5.23,0.285-10.453,0.386-15.654-0.424c-0.581-0.09-1.139-0.238-1.672-0.463
			c-1.021-0.428-1.181-1.315-0.371-2.103C27.628,68.054,28.365,67.697,29.161,67.466z"/>
		<path fill-rule="evenodd" clip-rule="evenodd" fill="#EC2B59" d="M31.019,16.747c0-1.129-0.015-2.259,0.008-3.388
			c0.009-0.454,0.111-0.943,0.651-1.037c0.519-0.09,0.785,0.31,1.008,0.715c0.458,0.832,0.563,1.759,0.672,2.67
			c0.25,2.07,0.579,4.139,0.494,6.234c-0.024,0.6-0.066,1.413-0.731,1.548c-0.72,0.146-1.08-0.585-1.382-1.171
			c-0.402-0.78-0.478-1.64-0.512-2.492C31.186,18.801,31.019,17.774,31.019,16.747C30.953,16.747,31.085,16.747,31.019,16.747z"/>
		<path fill-rule="evenodd" clip-rule="evenodd" fill="#116788" d="M76.828,61.925c0.25,0.045,0.456,0.184,0.57,0.395
			c0.784,1.455,2.027,1.796,3.594,1.689c1.655-0.113,3.324-0.023,4.986-0.021c-3.392,0.79-6.813,0.871-10.249,0.38
			c-0.666-0.095-0.83-0.666-0.409-1.23C75.715,62.605,76.311,62.311,76.828,61.925z"/>
		<path fill-rule="evenodd" clip-rule="evenodd" fill="#EC2B59" d="M34.593,26.35c0.009,1.11-0.908,2.143-1.917,2.158
			c-0.775,0.012-1.51-0.725-1.505-1.507c0.006-1.032,1.111-2.107,2.141-2.085C34.059,24.932,34.586,25.522,34.593,26.35z"/>
		<path fill-rule="evenodd" clip-rule="evenodd" fill="#3FA6C5" d="M38.132,40.089c1.668,0.854,3.48,0.827,5.285,0.898
			c2.292,0.091,4.46,0.882,6.704,1.26c1.261,0.213,2.512,0.15,3.77,0.053c6.898,4.612,8.839,14.828,1.575,21.55
			c-5.575,5.159-13.979,5.928-20.508,1.959c-4.384-2.664-6.985-6.566-7.147-11.771C27.616,47.77,31.825,42.214,38.132,40.089z
			 M31.464,55.58c-0.059,0.718,0.204,1.486-0.446,2.104c-0.28,0.268-0.159,0.647,0.085,0.925c0.278,0.316,0.642,0.383,1.017,0.193
			c0.354-0.179,0.531-0.631,0.355-0.857c-0.636-0.819-0.161-1.706-0.282-2.546c0.251-0.169,0.508-0.33,0.751-0.509
			c0.704-0.516,1.25-1.146,1.403-2.038c0.04-0.233,0.019-0.479-0.205-0.645c-0.206-0.152-0.425-0.097-0.537,0.079
			c-0.676,1.058-1.741,1.693-2.653,2.495c-0.211,0.185-0.397,0.409-0.216,0.706C30.928,55.804,31.208,55.646,31.464,55.58z
			 M36.182,64.438c0.914-0.603,0.872-1.534,0.826-2.453c-0.027-0.536-0.356-0.885-0.848-1.045c-1.185-0.386-3.043,0.824-3.229,2.085
			c0.124,1.143,2.002,2.283,3.031,1.836C36.135,64.785,36.17,64.61,36.182,64.438z M46.62,64.493
			c0.211,0.169,0.401,0.38,0.718,0.185c1.157-0.713,1.602-2.541,0.601-3.393c-0.616-0.749-2.055-1.115-2.833-0.676
			c-0.728,0.411-0.86,1.104-0.688,1.853C44.667,63.542,45.723,64.49,46.62,64.493z M49.917,55.124
			c0.557,0.011,0.945,0.034,0.982-0.35c0.036-0.362-0.116-0.731-0.521-0.901c-1.04-0.437-1.98-1.041-2.867-1.732
			c-0.211-0.165-0.427-0.416-0.7-0.148c-0.22,0.216-0.186,0.521-0.045,0.761C47.533,54.061,48.795,54.674,49.917,55.124z
			 M40.278,55.967c-0.195,0.033-0.768-0.211-1.082,0.383c-0.082,0.155-0.129,0.318-0.016,0.475c0.105,0.144,0.244,0.077,0.359,0.015
			c0.88-0.473,1.696-0.289,2.485,0.227c0.146,0.096,0.318,0.157,0.459,0.004c0.174-0.189,0.083-0.365-0.065-0.53
			C41.916,55.979,41.26,55.886,40.278,55.967z"/>
		<path fill-rule="evenodd" clip-rule="evenodd" fill="#FCFCFD" d="M38.132,40.089c-6.308,2.125-10.517,7.681-10.321,13.95
			c0.162,5.204,2.764,9.106,7.147,11.771c6.528,3.969,14.933,3.2,20.508-1.959c7.264-6.722,5.323-16.938-1.575-21.55
			c0.976-0.379,2.065-0.485,2.886-1.241c0.31-0.287,0.55-0.053,0.782,0.179c4.025,4.022,7.09,8.604,8.267,14.269
			c0.327,1.579,1.02,2.991,1.945,4.267c2.288,3.15,0.445,5.437-1.907,6.336c-3.287,1.256-6.697,2.131-10.237,2.362
			c-4.682,0.307-9.354,0.763-14.057,0.688c-2.234-0.035-4.461-0.112-6.653-0.515c-3.251-0.596-5.566-2.503-7.066-5.413
			c-3.282-6.365-2.405-17.601,5.692-23.186c0.056-0.039,0.11-0.081,0.167-0.119c0.748-0.496,1.558-0.925,2.414-1.11
			C37.093,38.609,37.375,39.787,38.132,40.089z"/>
		<path fill-rule="evenodd" clip-rule="evenodd" fill="#0D6686" d="M45.905,40.139c-1.959-0.195-3.97,0.021-5.864-0.698
			c-1.853-0.703-2.982-2.649-2.454-4.18c0.512-1.481,1.924-2.334,3.585-2.178c0.157,0.015,0.379,0.002,0.469-0.093
			c0.138-0.147-0.017-0.312-0.139-0.433c-1.551-1.546-1.264-3.351-0.66-5.152c0.833-2.486,2.511-3.842,5.223-4.003
			c1.344-0.08,2.643-0.19,3.929,0.27c0.496,0.63,1.206,0.993,1.823,1.472c1.263,0.979,2.293,2.145,2.766,3.715
			c0.225,0.748,0.287,1.485-0.313,2.112c-0.985,1.029-2.104,1.887-3.526,2.16c-1.832,0.351-3.63,0.981-5.542,0.798
			c-0.268-0.026-0.631-0.059-0.714,0.25c-0.113,0.424,0.33,0.458,0.586,0.551c0.349,0.127,0.724,0.186,1.092,0.255
			c1.525,0.292,3.069,0.188,4.605,0.178c1.665-0.011,3.156,0.542,4.543,1.368c1.063,0.633,1.056,1.691,0.033,2.394
			c-1.642,1.127-3.488,1.586-5.451,1.342C48.562,40.1,47.237,40.117,45.905,40.139z"/>
		<path fill-rule="evenodd" clip-rule="evenodd" fill="#7FA9D2" d="M45.905,40.139c1.333-0.022,2.657-0.039,3.991,0.127
			c1.963,0.244,3.81-0.214,5.451-1.342c1.022-0.703,1.03-1.761-0.033-2.394c-1.387-0.826-2.878-1.379-4.543-1.368
			c-1.536,0.01-3.08,0.113-4.605-0.178c-0.368-0.07-0.743-0.128-1.092-0.255c-0.257-0.094-0.7-0.127-0.586-0.551
			c0.083-0.309,0.446-0.276,0.714-0.25c1.913,0.184,3.71-0.447,5.542-0.798c1.421-0.272,2.541-1.13,3.526-2.16
			c0.601-0.626,0.538-1.364,0.313-2.112c-0.473-1.57-1.503-2.736-2.766-3.715c-0.618-0.479-1.328-0.841-1.823-1.472
			c3.593,0.586,6.261,4.216,5.559,7.57c-0.194,0.929-0.719,1.694-1.285,2.422c-0.686,0.88-0.706,0.865,0.335,1.11
			c1.179,0.277,2.744,2.101,2.758,3.29c0.011,0.936-0.5,1.618-1.275,2.084c-0.83,0.499-1.72,0.759-2.712,0.81
			C50.833,41.088,48.359,40.727,45.905,40.139z"/>
		<path fill-rule="evenodd" clip-rule="evenodd" fill="#FEFEFE" d="M17.021,27.675c0.047,0.107,0.109,0.231-0.031,0.299
			c-0.043,0.021-0.14-0.068-0.213-0.107C16.858,27.803,16.94,27.739,17.021,27.675z"/>
		<path fill-rule="evenodd" clip-rule="evenodd" fill="#F8F9FA" d="M83.452,63.03c-1.365-0.094-2.731-0.19-4.098-0.281
			c-0.321-0.021-0.608-0.1-0.795-0.386c-0.653-1.002-1.377-1.966-1.939-3.017c-0.769-1.433-0.376-2.91,0.257-4.252
			c1.997-4.237,5.921-5.459,10.248-3.943c1.578,0.553,2.515,1.851,2.938,3.354c0.381,1.359,0.838,2.647,1.469,3.907
			c0.978,1.953,0.63,2.74-1.433,3.514C87.958,62.729,85.734,63.052,83.452,63.03z M83.401,62.533
			c3.402,0.011,6.242-2.856,5.835-5.893c-0.348-2.586-2.561-4.546-5.394-4.774c-2.7-0.218-5.351,1.505-6.063,3.942
			C76.799,59.17,79.6,62.521,83.401,62.533z"/>
		<path fill-rule="evenodd" clip-rule="evenodd" fill="#F8F9FA" d="M47.939,61.285c1,0.852,0.556,2.68-0.601,3.393
			c-0.317,0.195-0.507-0.016-0.718-0.183c-0.042-0.806-0.82-1.115-1.172-1.718c-0.242-0.414-0.365-0.816-0.154-1.244
			c0.237-0.482,0.697-0.441,1.151-0.421C46.949,61.135,47.415,61.466,47.939,61.285z"/>
		<path fill-rule="evenodd" clip-rule="evenodd" fill="#F8F9FA" d="M36.182,64.438c-0.012,0.173-0.047,0.348-0.22,0.423
			c-1.028,0.447-2.907-0.693-3.031-1.836c0.414-0.292,0.814-0.607,1.245-0.872c0.568-0.348,1.208-0.946,1.842-0.486
			c0.68,0.492,0.137,1.233-0.021,1.862C35.915,63.86,35.587,64.242,36.182,64.438z"/>
		<path fill-rule="evenodd" clip-rule="evenodd" fill="#5F4877" d="M49.917,55.124c-1.122-0.45-2.384-1.063-3.152-2.371
			c-0.14-0.239-0.174-0.545,0.045-0.761c0.273-0.268,0.489-0.017,0.7,0.148c0.887,0.691,1.827,1.296,2.867,1.732
			c0.405,0.17,0.557,0.539,0.521,0.901C50.862,55.158,50.474,55.135,49.917,55.124z"/>
		<path fill-rule="evenodd" clip-rule="evenodd" fill="#5F4877" d="M31.464,55.58c-0.256,0.066-0.537,0.224-0.728-0.092
			c-0.181-0.297,0.005-0.521,0.216-0.706c0.912-0.802,1.977-1.438,2.653-2.495c0.112-0.176,0.331-0.231,0.537-0.079
			c0.224,0.165,0.245,0.411,0.205,0.645c-0.152,0.892-0.699,1.522-1.403,2.038c-0.244,0.179-0.5,0.34-0.75,0.509
			C31.952,55.46,31.708,55.52,31.464,55.58z"/>
		<path fill-rule="evenodd" clip-rule="evenodd" fill="#63507E" d="M47.939,61.285c-0.524,0.181-0.99-0.15-1.493-0.173
			c-0.454-0.021-0.915-0.062-1.151,0.421c-0.211,0.428-0.088,0.83,0.154,1.244c0.352,0.603,1.129,0.912,1.172,1.718
			c-0.897-0.005-1.954-0.953-2.202-2.033c-0.172-0.748-0.04-1.441,0.688-1.853C45.884,60.17,47.323,60.536,47.939,61.285z"/>
		<path fill-rule="evenodd" clip-rule="evenodd" fill="#63507E" d="M36.182,64.438c-0.595-0.195-0.268-0.577-0.185-0.909
			c0.158-0.629,0.701-1.37,0.021-1.862c-0.635-0.46-1.274,0.139-1.842,0.486c-0.431,0.265-0.831,0.58-1.245,0.872
			c0.186-1.261,2.044-2.471,3.229-2.085c0.491,0.16,0.821,0.509,0.848,1.045C37.054,62.903,37.096,63.835,36.182,64.438z"/>
		<path fill-rule="evenodd" clip-rule="evenodd" fill="#F8F9FA" d="M31.464,55.58c0.244-0.061,0.487-0.12,0.73-0.181
			c0.12,0.84-0.355,1.727,0.281,2.546c0.176,0.227-0.001,0.679-0.355,0.857c-0.375,0.189-0.738,0.123-1.017-0.193
			c-0.244-0.277-0.365-0.657-0.085-0.925C31.668,57.066,31.406,56.298,31.464,55.58z"/>
		<path fill-rule="evenodd" clip-rule="evenodd" fill="#5F4877" d="M40.278,55.967c0.982-0.081,1.637,0.012,2.141,0.572
			c0.148,0.165,0.239,0.341,0.065,0.53c-0.141,0.153-0.313,0.092-0.459-0.004c-0.79-0.516-1.605-0.699-2.485-0.227
			c-0.116,0.063-0.254,0.129-0.359-0.015c-0.114-0.156-0.066-0.319,0.016-0.475C39.511,55.756,40.083,56,40.278,55.967z"/>
		<path fill-rule="evenodd" clip-rule="evenodd" fill="#40A7C5" d="M83.401,62.533c-3.802-0.013-6.603-3.363-5.621-6.725
			c0.712-2.438,3.362-4.16,6.063-3.942c2.833,0.229,5.046,2.188,5.394,4.774C89.644,59.677,86.804,62.544,83.401,62.533z
			 M86.961,56.755c-0.12-0.131-0.239-0.261-0.359-0.392c0.259-0.115,0.704,0.173,0.789-0.257c0.081-0.414-0.356-0.439-0.625-0.527
			c-0.486-0.16-0.983-0.293-1.483-0.4c-0.211-0.046-0.553-0.184-0.626,0.104c-0.09,0.354,0.271,0.398,0.535,0.46
			c-0.516,0.363-0.444,0.647,0.115,0.872c0.305,0.122,0.604,0.255,0.906,0.384c0.092,0.303,0.36,0.36,0.611,0.438
			c0.313,0.097,0.745,0.289,0.852-0.138C87.795,56.816,87.356,56.739,86.961,56.755z M79.058,56.476
			c-0.115,0.442-1.063,0.262-0.762,1.017c-0.148,0.178-0.396,0.342-0.214,0.608c0.129,0.188,0.368,0.162,0.567,0.117
			c0.419-0.097,0.67-0.33,0.563-0.804c0.226-0.061,0.454-0.113,0.677-0.184c0.379-0.119,0.946-0.161,1.003-0.551
			c0.082-0.571-0.729-0.069-0.873-0.52c0.328-0.21,0.312-0.568-0.027-0.539c-0.646,0.055-1.399,0.078-1.824,0.835
			C78.527,56.591,78.792,56.563,79.058,56.476z"/>
		<path fill-rule="evenodd" clip-rule="evenodd" fill="#63507E" d="M78.296,57.492c-0.302-0.755,0.646-0.574,0.761-1.016
			c0.32-0.105,0.642-0.211,0.963-0.316c0.145,0.45,0.955-0.052,0.873,0.52c-0.057,0.39-0.624,0.432-1.003,0.551
			c-0.223,0.07-0.451,0.123-0.677,0.184C78.907,57.439,78.602,57.466,78.296,57.492z"/>
		<path fill-rule="evenodd" clip-rule="evenodd" fill="#5F4877" d="M85.191,55.742c-0.264-0.062-0.625-0.106-0.535-0.46
			c0.073-0.287,0.415-0.149,0.626-0.104c0.5,0.107,0.997,0.24,1.483,0.4c0.269,0.088,0.706,0.113,0.625,0.527
			c-0.085,0.43-0.53,0.142-0.789,0.257l0.011,0.005c-0.138-0.286-0.401-0.199-0.631-0.213l0.016,0.009
			c-0.14-0.083-0.279-0.165-0.419-0.248C85.449,55.858,85.32,55.8,85.191,55.742z"/>
		<path fill-rule="evenodd" clip-rule="evenodd" fill="#63507E" d="M85.191,55.742c0.129,0.058,0.258,0.116,0.387,0.174
			c-0.083,0.46,0.285,0.155,0.419,0.248l-0.016-0.009c0.152,0.24,0.396,0.214,0.631,0.213l-0.011-0.005
			c0.12,0.131,0.239,0.261,0.359,0.392c-0.119,0.48-0.513,0.118-0.748,0.243c-0.302-0.129-0.602-0.262-0.906-0.384
			C84.747,56.39,84.676,56.105,85.191,55.742z"/>
		<path fill-rule="evenodd" clip-rule="evenodd" fill="#5F4877" d="M80.02,56.16c-0.321,0.105-0.643,0.211-0.963,0.316
			c-0.265,0.086-0.529,0.114-0.889-0.021c0.425-0.757,1.178-0.78,1.824-0.835C80.331,55.592,80.348,55.95,80.02,56.16z"/>
		<path fill-rule="evenodd" clip-rule="evenodd" fill="#F8F9FA" d="M86.213,56.998c0.235-0.125,0.629,0.237,0.748-0.243
			c0.396-0.016,0.834,0.062,0.715,0.544c-0.106,0.427-0.539,0.234-0.852,0.138C86.573,57.358,86.305,57.301,86.213,56.998z"/>
		<path fill-rule="evenodd" clip-rule="evenodd" fill="#F8F9FA" d="M78.296,57.492c0.306-0.026,0.611-0.053,0.917-0.078
			c0.106,0.474-0.145,0.707-0.563,0.804c-0.199,0.045-0.438,0.071-0.567-0.117C77.9,57.834,78.147,57.67,78.296,57.492z"/>
		<path fill-rule="evenodd" clip-rule="evenodd" fill="#40A7C5" d="M85.997,56.164c-0.134-0.093-0.502,0.212-0.419-0.248
			C85.718,55.999,85.857,56.081,85.997,56.164z"/>
		<path fill-rule="evenodd" clip-rule="evenodd" fill="#40A7C5" d="M86.612,56.368c-0.235,0.001-0.479,0.027-0.631-0.213
			C86.211,56.169,86.475,56.082,86.612,56.368z"/>
	</g>
</g>
</svg>
