<?xml version="1.0" encoding="utf-8"?>
<!-- Generator: Adobe Illustrator 16.0.0, SVG Export Plug-In . SVG Version: 6.00 Build 0)  -->
<!DOCTYPE svg PUBLIC "-//W3C//DTD SVG 1.1//EN" "http://www.w3.org/Graphics/SVG/1.1/DTD/svg11.dtd">
<svg version="1.1" id="login_x5F_yes_xA0_이미지_1_"
	 xmlns="http://www.w3.org/2000/svg" xmlns:xlink="http://www.w3.org/1999/xlink" x="0px" y="0px" width="102.857px"
	 height="102.857px" viewBox="0 0 102.857 102.857" enable-background="new 0 0 102.857 102.857" xml:space="preserve">
<g>
	<path fill-rule="evenodd" clip-rule="evenodd" fill="#71112F" d="M29.068,67.462c-0.299-0.907-1.085-1.468-1.598-2.228
		c-2.677-3.973-3.22-8.379-2.523-12.959c0.624-4.102,2.392-7.729,5.313-10.728c1.491-1.531,3.16-2.833,5.251-3.462
		c0.39-0.118,0.522-0.245,0.513-0.695c-0.043-2.285,0.841-4.112,2.814-5.351c0.248-0.155,0.429-0.2,0.311-0.655
		c-0.664-2.574,0.01-4.86,1.707-6.868c3.16-3.742,9.707-3.76,13.292-0.594c2.417,2.134,3.986,5.961,1.799,9.23
		c-0.295,0.441-0.141,0.579,0.251,0.834c1.514,0.985,2.501,2.316,2.469,4.216c-0.006,0.336,0.006,0.745-0.17,0.992
		c-0.562,0.79-0.15,1.16,0.429,1.713c2.352,2.249,4.31,4.779,5.841,7.7c1.288,2.458,1.602,5.201,2.723,7.685
		c0.536,1.188,1.333,2.215,1.934,3.36c0.495,0.945,0.905,1.905,0.928,3.003c0.052,2.412-1.343,3.854-4.268,4.975
		c-3.418,1.309-7.007,2.046-10.677,2.318c-1.259,0.094-2.511,0.266-3.766,0.401c-2.692-0.157-5.369,0.335-8.061,0.203
		c-0.473-0.022-0.946-0.071-1.419-0.082c-2.147-0.049-4.302,0.009-6.439-0.162c-1.729-0.138-3.4-0.623-4.991-1.407
		C30.009,68.547,29.881,67.629,29.068,67.462z M50.21,23.876c-1.931-1.121-3.916-0.479-5.873-0.136
		c-1.245,0.218-2.179,0.982-2.745,2.113c-1.127,2.252-2.095,4.524-0.013,6.791c0.101,0.109,0.164,0.284,0.054,0.358
		c-0.123,0.083-0.32,0.097-0.479,0.081c-1.685-0.174-3.238,0.837-3.644,2.383c-0.376,1.434,0.835,3.341,2.556,3.983
		c1.894,0.708,3.904,0.465,5.858,0.683c2.66,0.689,5.357,1.029,8.104,0.776c0.789-0.073,1.541-0.367,2.185-0.833
		c0.755-0.547,1.282-1.274,1.123-2.27c-0.219-1.371-1.617-2.797-2.999-3.038c-0.839-0.146-0.677-0.455-0.249-0.907
		c1.557-1.643,1.91-3.532,1.251-5.687C54.68,26.02,52.208,23.896,50.21,23.876z M38.146,40.098c-0.792-0.272-1.016-1.555-2.09-1.259
		c-0.853,0.235-1.663,0.625-2.404,1.128c-0.028,0.019-0.055,0.041-0.083,0.061c-3.52,2.583-5.935,5.933-6.872,10.227
		c-0.946,4.334-0.977,8.628,1.034,12.737c1.491,3.047,3.843,5.041,7.211,5.66c2.156,0.396,4.348,0.476,6.545,0.51
		c4.734,0.073,9.438-0.373,14.149-0.691c3.604-0.243,7.081-1.105,10.406-2.45c2.25-0.909,3.934-3.148,1.791-6.146
		c-0.877-1.226-1.633-2.545-1.933-4.045c-1.158-5.779-4.208-10.469-8.315-14.558c-0.219-0.218-0.453-0.535-0.768-0.237
		c-0.837,0.792-1.978,0.852-2.955,1.3c-1.228,0.032-2.45,0.142-3.682-0.071c-2.252-0.39-4.442-1.131-6.737-1.264
		C41.641,40.895,39.818,40.959,38.146,40.098z"/>
	<path fill-rule="evenodd" clip-rule="evenodd" fill="#EB2A58" d="M20.771,19.145c-0.167,2.147-0.249,4.313-1.332,6.264
		c-0.152,0.274-0.12,0.513,0,0.777c0.796,1.733,1.064,3.671,2.141,5.306c0.485,0.737,0.184,1.484-0.521,1.967
		c-0.724,0.496-1.455,0.373-2.028-0.279c-0.669-0.761-0.985-1.711-1.27-2.666c-0.079-0.262-0.193-0.522-0.22-0.79
		c-0.166-1.607-0.703-2.426-2.648-2.605c-2.799-0.258-4.397-2.543-5.767-4.814c-0.233-0.387-0.194-0.883,0.219-1.215
		c0.405-0.324,0.841-0.274,1.225,0.035c0.906,0.73,1.789,1.49,2.693,2.221c0.452,0.365,0.919,0.718,1.485,0.898
		c1.333,0.427,2.11,0.014,2.42-1.355c0.317-1.404,0.51-2.829,0.474-4.274c-0.036-1.458,0.466-2.203,1.507-2.226
		c1.051-0.023,1.612,0.717,1.62,2.141C20.772,18.734,20.771,18.939,20.771,19.145z"/>
	<path fill-rule="evenodd" clip-rule="evenodd" fill="#EB2A58" d="M24.89,27.625c0.668,0.328,1.225,0.112,1.74-0.132
		c0.458-0.217,0.876-0.528,1.292-0.826c0.597-0.428,1.238-0.955,1.904-0.282c0.676,0.683,0.359,1.466-0.132,2.14
		c-0.993,1.363-3.543,2.287-5.159,1.859c-1.252-0.332-2.148-1.143-2.462-2.383c-0.632-2.496-0.199-4.817,1.478-6.83
		c0.787-0.945,1.85-1.382,3.064-1.434c1.093-0.046,2.026,0.268,2.612,1.278c0.609,1.052,0.549,2.096-0.079,3.103
		c-0.859,1.378-2.131,2.288-3.54,3.033C25.378,27.272,25.078,27.279,24.89,27.625z M24.718,25.045c0.967-0.62,1.712-1.25,2.24-2.109
		c0.101-0.164,0.263-0.349,0.061-0.548c-0.144-0.143-0.316-0.059-0.483-0.032C25.563,22.517,24.818,23.557,24.718,25.045z"/>
	<path fill-rule="evenodd" clip-rule="evenodd" fill="#EB2A58" d="M35.096,23.162c-0.257,0.093-0.515,0.185-0.771,0.28
		c-1.669,0.62-3.17,0.206-4.097-1.129c-0.92-1.327-0.778-2.936,0.435-4.217c0.821-0.867,1.875-1.362,3.034-1.611
		c0.554-0.119,1.087,0.011,1.583,0.285c0.512,0.283,0.911,0.655,0.775,1.299c-0.142,0.669-0.705,0.695-1.223,0.641
		c-0.963-0.101-1.624,0.433-2.259,1.01c-0.326,0.296-0.461,0.711-0.181,1.11c0.274,0.39,0.659,0.256,1.02,0.108
		c0.695-0.284,1.371-0.635,2.088-0.839c1.58-0.449,2.878,0.518,2.993,2.163c0.167,2.395-2.289,5.641-4.648,6.138
		c-0.801,0.169-1.556,0.096-1.916-0.75c-0.358-0.843,0.083-1.455,0.792-1.887c1.029-0.627,2.045-1.261,2.575-2.417
		c0.013-0.082,0.025-0.164,0.039-0.246C35.255,23.122,35.175,23.142,35.096,23.162z"/>
	<path fill-rule="evenodd" clip-rule="evenodd" fill="#731532" d="M76.839,61.924c-0.012-0.032-0.016-0.069-0.035-0.096
		c-2.706-3.793-1.939-7.909,1.986-10.541c2.779-1.863,5.808-1.969,8.824-0.863c1.871,0.686,2.899,2.379,3.365,4.266
		c0.354,1.429,0.874,2.694,1.894,3.77c0.651,0.687,0.534,1.898-0.195,2.827c-0.868,1.107-2.108,1.575-3.404,1.917
		c-1.083,0.285-2.178,0.521-3.268,0.779c-1.904,0.002-3.813-0.067-5.713,0.031c-1.214,0.063-2.014-0.443-2.665-1.35
		C77.41,62.361,77.253,62.011,76.839,61.924z M83.439,63.032c2.312,0.019,4.566-0.306,6.73-1.131
		c1.99-0.759,2.325-1.544,1.379-3.448c-0.625-1.257-1.107-2.533-1.477-3.896c-0.397-1.468-1.278-2.754-2.801-3.334
		c-4.255-1.622-8.271-0.445-10.318,3.701c-0.684,1.386-1.138,2.917-0.331,4.426c0.561,1.049,1.284,2.011,1.936,3.011
		c0.161,0.248,0.399,0.358,0.688,0.378C80.644,62.836,82.042,62.935,83.439,63.032z"/>
	<path fill-rule="evenodd" clip-rule="evenodd" fill="#B11244" d="M29.068,67.462c0.813,0.167,0.94,1.085,1.661,1.439
		c1.591,0.784,3.262,1.27,4.991,1.407c2.137,0.171,4.292,0.113,6.439,0.162c0.474,0.011,0.946,0.06,1.419,0.082
		c2.692,0.132,5.368-0.36,8.061-0.203c-2.26,0.679-4.558,1.143-6.921,1.271c-5.234,0.284-10.461,0.386-15.667-0.426
		c-0.582-0.091-1.14-0.243-1.672-0.47c-0.972-0.414-1.141-1.264-0.399-2.041C27.554,68.084,28.267,67.688,29.068,67.462z"/>
	<path fill-rule="evenodd" clip-rule="evenodd" fill="#B11445" d="M76.839,61.924c0.414,0.087,0.571,0.438,0.789,0.741
		c0.651,0.906,1.451,1.413,2.665,1.35c1.899-0.099,3.809-0.029,5.713-0.031c-3.4,0.791-6.831,0.877-10.276,0.384
		c-0.668-0.095-0.831-0.67-0.407-1.233C75.721,62.604,76.312,62.3,76.839,61.924z"/>
	<path fill-rule="evenodd" clip-rule="evenodd" fill="#E75A79" d="M38.146,40.098c1.672,0.861,3.495,0.796,5.299,0.901
		c2.295,0.132,4.485,0.874,6.737,1.264c1.232,0.213,2.454,0.104,3.682,0.072c0.208,0.114,0.433,0.205,0.621,0.344
		c6.966,5.158,7.481,15.55,0.929,21.213c-5.684,4.912-12.159,5.755-18.943,2.687c-5.295-2.396-8.44-6.631-8.652-12.569
		C27.595,47.747,31.858,42.182,38.146,40.098z M36.178,64.438c0.754-0.607,1.119-2.021,0.73-2.847
		c-0.153-0.327-0.408-0.544-0.75-0.652c-1.191-0.376-3.033,0.814-3.232,2.088c0.131,1.138,2.019,2.282,3.035,1.836
		C36.137,64.786,36.162,64.609,36.178,64.438z M46.535,64.167c0.221,0.227,0.218,0.837,0.76,0.528
		c1.111-0.631,1.718-2.423,0.639-3.403c-0.582-0.726-1.719-1.063-2.634-0.766c-0.737,0.24-0.983,0.866-0.947,1.529
		c0.058,1.063,0.785,1.773,1.57,2.39C46.198,64.66,46.434,64.488,46.535,64.167z M48.897,56.782c1.727,0.008,3.045-1.309,3.05-3.046
		c0.003-1.49-1.466-2.88-3.048-2.884c-1.518-0.003-2.987,1.436-3.007,2.945C45.869,55.434,47.22,56.774,48.897,56.782z
		 M32.518,56.782c1.663-0.016,2.949-1.322,2.972-3.021c0.021-1.487-1.431-2.884-3.023-2.909c-1.551-0.024-3.058,1.478-3.031,3.023
		C29.464,55.519,30.821,56.798,32.518,56.782z M40.524,56.957c0.821-0.113,1.641-0.233,2.024-1.134
		c0.084-0.196,0.099-0.41-0.083-0.564c-0.19-0.162-0.401-0.108-0.541,0.064c-0.943,1.174-1.985,0.916-3.072,0.241
		c-0.154-0.097-0.358-0.301-0.529-0.06c-0.16,0.226-0.063,0.479,0.133,0.641C39.053,56.637,39.745,56.9,40.524,56.957z"/>
	<path fill-rule="evenodd" clip-rule="evenodd" fill="#FDFBFB" d="M38.146,40.098c-6.288,2.083-10.551,7.648-10.327,13.911
		c0.211,5.938,3.356,10.174,8.652,12.569c6.784,3.068,13.259,2.226,18.943-2.687c6.553-5.663,6.037-16.055-0.929-21.213
		c-0.188-0.139-0.413-0.23-0.621-0.344c0.978-0.448,2.118-0.509,2.955-1.3c0.314-0.298,0.549,0.02,0.768,0.237
		c4.107,4.089,7.157,8.778,8.315,14.558c0.3,1.5,1.056,2.819,1.933,4.045c2.143,2.998,0.459,5.237-1.791,6.146
		c-3.325,1.345-6.803,2.207-10.406,2.45c-4.711,0.318-9.415,0.765-14.149,0.691c-2.197-0.034-4.389-0.113-6.545-0.51
		c-3.368-0.619-5.721-2.613-7.211-5.66c-2.01-4.108-1.979-8.402-1.034-12.737c0.937-4.294,3.352-7.644,6.872-10.227
		c0.027-0.021,0.054-0.042,0.083-0.061c0.741-0.504,1.551-0.894,2.404-1.128C37.13,38.543,37.354,39.826,38.146,40.098z"/>
	<path fill-rule="evenodd" clip-rule="evenodd" fill="#B10F41" d="M45.924,40.133c-1.954-0.217-3.964,0.025-5.858-0.683
		c-1.721-0.643-2.933-2.549-2.556-3.983c0.406-1.546,1.959-2.557,3.644-2.383c0.159,0.017,0.356,0.002,0.479-0.081
		c0.11-0.074,0.047-0.249-0.054-0.358c-2.083-2.267-1.115-4.539,0.013-6.791c0.566-1.131,1.5-1.896,2.745-2.113
		c1.957-0.343,3.942-0.985,5.873,0.136c0.384,0.548,0.988,0.82,1.513,1.189c1.085,0.763,1.931,1.746,2.523,2.917
		c0.91,1.801,0.571,2.862-1.111,3.995c-2.345,1.579-5.026,1.789-7.722,1.954c-0.355,0.022-0.873-0.164-0.939,0.324
		c-0.053,0.388,0.457,0.431,0.77,0.522c1.84,0.536,3.732,0.384,5.608,0.386c1.664,0.001,3.153,0.56,4.525,1.414
		c1.015,0.631,0.976,1.633-0.013,2.319c-1.607,1.115-3.407,1.598-5.342,1.373C48.654,40.108,47.292,40.11,45.924,40.133z"/>
	<path fill-rule="evenodd" clip-rule="evenodd" fill="#F399B2" d="M45.924,40.133c1.368-0.022,2.729-0.024,4.098,0.135
		c1.935,0.226,3.734-0.258,5.342-1.373c0.988-0.686,1.027-1.688,0.013-2.319c-1.372-0.854-2.861-1.413-4.525-1.414
		c-1.876-0.001-3.769,0.15-5.608-0.386c-0.313-0.091-0.823-0.134-0.77-0.522c0.066-0.488,0.584-0.302,0.939-0.324
		c2.696-0.165,5.377-0.375,7.722-1.954c1.683-1.132,2.021-2.193,1.111-3.995c-0.593-1.171-1.438-2.154-2.523-2.917
		c-0.525-0.369-1.128-0.641-1.513-1.189c1.998,0.019,4.47,2.143,5.129,4.299c0.659,2.155,0.306,4.044-1.251,5.687
		c-0.428,0.452-0.59,0.761,0.249,0.907c1.382,0.241,2.78,1.667,2.999,3.038c0.159,0.996-0.368,1.723-1.123,2.27
		c-0.644,0.466-1.396,0.76-2.185,0.833C51.281,41.162,48.584,40.822,45.924,40.133z"/>
	<path fill-rule="evenodd" clip-rule="evenodd" fill="#FEFEFE" d="M35.096,23.162c0.08-0.02,0.16-0.04,0.24-0.061
		c-0.013,0.082-0.026,0.164-0.039,0.246C35.23,23.285,35.163,23.224,35.096,23.162z"/>
	<path fill-rule="evenodd" clip-rule="evenodd" fill="#FBF6F7" d="M83.439,63.032c-1.397-0.098-2.796-0.196-4.193-0.293
		c-0.289-0.02-0.527-0.13-0.688-0.378c-0.651-1-1.375-1.962-1.936-3.011c-0.807-1.509-0.353-3.04,0.331-4.426
		c2.047-4.146,6.063-5.323,10.318-3.701c1.522,0.58,2.403,1.866,2.801,3.334c0.369,1.362,0.852,2.639,1.477,3.896
		c0.946,1.904,0.611,2.689-1.379,3.448C88.006,62.727,85.751,63.051,83.439,63.032z M78.322,54.833
		c-0.363,0.18-0.564,0.441-0.432,0.868c-0.313,0.671-0.392,1.373-0.268,2.1c0.393,2.295,1.771,3.738,3.945,4.411
		c2.366,0.732,4.487,0.212,6.229-1.546c1.959-1.977,1.969-4.945,0.026-6.926c-1.766-1.801-3.915-2.317-6.316-1.554
		C80.11,52.631,78.89,53.355,78.322,54.833z"/>
	<path fill-rule="evenodd" clip-rule="evenodd" fill="#731130" d="M48.897,56.782c-1.677-0.008-3.028-1.349-3.005-2.984
		c0.021-1.51,1.49-2.949,3.007-2.945c1.583,0.003,3.051,1.394,3.048,2.884C51.942,55.474,50.624,56.79,48.897,56.782z
		 M48.892,55.758c1.109,0.018,1.958-0.783,1.993-1.88c0.034-1.063-0.812-1.912-1.934-1.941c-1.059-0.028-1.995,0.848-2.018,1.888
		C46.91,54.859,47.804,55.741,48.892,55.758z"/>
	<path fill-rule="evenodd" clip-rule="evenodd" fill="#731130" d="M32.518,56.782c-1.696,0.016-3.054-1.264-3.082-2.906
		c-0.027-1.545,1.48-3.047,3.031-3.023c1.592,0.025,3.043,1.421,3.023,2.909C35.466,55.46,34.181,56.767,32.518,56.782z
		 M32.43,55.758c1.109,0.011,1.972-0.819,1.988-1.914c0.015-1.022-0.833-1.893-1.876-1.928c-1.063-0.036-2.025,0.841-2.065,1.882
		C30.437,54.839,31.342,55.746,32.43,55.758z"/>
	<path fill-rule="evenodd" clip-rule="evenodd" fill="#FBF8F9" d="M47.934,61.292c1.079,0.98,0.472,2.772-0.639,3.403
		c-0.542,0.309-0.539-0.302-0.76-0.528c-0.153-0.514-0.637-0.768-0.928-1.175c-0.329-0.461-0.623-0.936-0.319-1.485
		c0.333-0.603,0.939-0.408,1.461-0.349C47.144,61.203,47.517,61.435,47.934,61.292z"/>
	<path fill-rule="evenodd" clip-rule="evenodd" fill="#FBF6F7" d="M36.178,64.438c-0.016,0.171-0.041,0.348-0.217,0.425
		c-1.017,0.446-2.904-0.698-3.035-1.836c0.415-0.293,0.815-0.609,1.247-0.874c0.569-0.35,1.216-0.947,1.848-0.49
		c0.678,0.49,0.129,1.234-0.025,1.865C35.915,63.857,35.575,64.244,36.178,64.438z"/>
	<path fill-rule="evenodd" clip-rule="evenodd" fill="#7B1836" d="M47.934,61.292c-0.417,0.143-0.79-0.089-1.185-0.134
		c-0.522-0.06-1.127-0.254-1.461,0.349c-0.304,0.55-0.01,1.024,0.319,1.485c0.291,0.407,0.775,0.661,0.928,1.175
		c-0.102,0.321-0.337,0.493-0.611,0.278c-0.785-0.616-1.512-1.326-1.57-2.39c-0.036-0.663,0.21-1.289,0.947-1.529
		C46.215,60.229,47.352,60.566,47.934,61.292z"/>
	<path fill-rule="evenodd" clip-rule="evenodd" fill="#7B1836" d="M36.178,64.438c-0.603-0.194-0.263-0.581-0.183-0.91
		c0.155-0.631,0.704-1.375,0.025-1.865c-0.632-0.457-1.278,0.141-1.848,0.49c-0.432,0.265-0.833,0.581-1.247,0.874
		c0.2-1.273,2.041-2.464,3.232-2.088c0.342,0.108,0.597,0.325,0.75,0.652C37.297,62.418,36.933,63.831,36.178,64.438z"/>
	<path fill-rule="evenodd" clip-rule="evenodd" fill="#731130" d="M40.524,56.957c-0.779-0.057-1.472-0.32-2.067-0.812
		c-0.196-0.162-0.293-0.415-0.133-0.641c0.171-0.241,0.375-0.037,0.529,0.06c1.087,0.675,2.129,0.933,3.072-0.241
		c0.139-0.173,0.35-0.227,0.541-0.064c0.182,0.154,0.167,0.368,0.083,0.564C42.165,56.724,41.346,56.844,40.524,56.957z"/>
	<path fill-rule="evenodd" clip-rule="evenodd" fill="#E75B79" d="M78.322,54.833c0.567-1.478,1.788-2.202,3.186-2.646
		c2.401-0.764,4.551-0.247,6.316,1.554c1.942,1.98,1.933,4.949-0.026,6.926c-1.742,1.758-3.863,2.278-6.229,1.546
		c-2.175-0.673-3.553-2.116-3.945-4.411c-0.124-0.727-0.045-1.429,0.268-2.099c0.7,0.383,1.229,0.793,0.365,1.559
		c-0.227,0.201-0.433,0.518-0.085,0.777c0.382,0.286,0.505-0.109,0.69-0.332c1.02-1.227,1.02-1.223-0.177-2.397
		C78.543,55.171,78.442,54.992,78.322,54.833z M86.393,55.048c0.002-0.335-0.239-0.435-0.528-0.26
		c-0.604,0.364-1.431,0.607-1.62,1.313c-0.185,0.689,0.638,0.939,1.058,1.349c0.169,0.164,0.351,0.346,0.563,0.428
		c0.34,0.132,0.558-0.091,0.512-0.405c-0.081-0.551-0.849-0.679-0.915-1.155C85.379,55.731,86.306,55.706,86.393,55.048z"/>
	<path fill-rule="evenodd" clip-rule="evenodd" fill="#731130" d="M78.322,54.833c0.12,0.159,0.221,0.338,0.362,0.476
		c1.196,1.175,1.196,1.171,0.177,2.397c-0.186,0.223-0.309,0.618-0.69,0.332c-0.348-0.26-0.142-0.576,0.085-0.777
		c0.863-0.766,0.335-1.176-0.365-1.559C77.758,55.274,77.959,55.013,78.322,54.833z"/>
	<path fill-rule="evenodd" clip-rule="evenodd" fill="#FBF8F9" d="M48.892,55.758c-1.088-0.017-1.982-0.898-1.959-1.934
		c0.023-1.04,0.958-1.916,2.018-1.888c1.122,0.029,1.968,0.879,1.934,1.941C50.85,54.975,50.001,55.775,48.892,55.758z"/>
	<path fill-rule="evenodd" clip-rule="evenodd" fill="#FBF8F9" d="M32.43,55.758c-1.088-0.012-1.994-0.919-1.954-1.96
		c0.04-1.041,1.002-1.918,2.065-1.882c1.044,0.035,1.891,0.905,1.876,1.928C34.402,54.938,33.54,55.769,32.43,55.758z"/>
	<path fill-rule="evenodd" clip-rule="evenodd" fill="#731130" d="M86.393,55.048c-0.087,0.658-1.014,0.684-0.932,1.27
		c0.066,0.477,0.834,0.604,0.915,1.155c0.046,0.314-0.172,0.537-0.512,0.405c-0.212-0.082-0.394-0.264-0.563-0.428
		c-0.42-0.409-1.242-0.659-1.058-1.349c0.189-0.706,1.017-0.949,1.62-1.313C86.153,54.613,86.395,54.713,86.393,55.048z"/>
</g>
</svg>
