<?xml version="1.0" encoding="utf-8"?>
<!-- Generator: Adobe Illustrator 16.0.0, SVG Export Plug-In . SVG Version: 6.00 Build 0)  -->
<!DOCTYPE svg PUBLIC "-//W3C//DTD SVG 1.1//EN" "http://www.w3.org/Graphics/SVG/1.1/DTD/svg11.dtd">
<svg version="1.1" id="레이어1_xA0_이미지_1_"
	 xmlns="http://www.w3.org/2000/svg" xmlns:xlink="http://www.w3.org/1999/xlink" x="0px" y="0px" width="500px" height="500px"
	 viewBox="0 0 500 500" enable-background="new 0 0 500 500" xml:space="preserve">
<g>
	<path fill-rule="evenodd" clip-rule="evenodd" fill="#26630F" d="M220.832,379.583c-4.635-6.479-9.064-12.884-8.206-21.614
		c1.558-15.845,17.21-32.93,33.021-35.531c1.921-1.029,4.197,0.37,6.085-0.888c3,0,6,0,9,0c7.295,2.517,14.505,5.068,20.067,10.911
		c4.33,4.549,6.186,10.15,7.587,15.953c1.407,5.825,4.29,10.659,8.401,14.932c3.961,4.116,2.999,11.764-2.312,15.806
		c-6.647,5.06-14.041,8.686-22.537,9.536c-7.99,1.198-15.936,2.861-24.03,3.107c-6.79,0.207-13.578-0.32-20.052-2.594
		C223.43,387.646,220.606,384.663,220.832,379.583z"/>
	<path fill-rule="evenodd" clip-rule="evenodd" fill="#614373" d="M165.732,321.55c7.471,2.574,14.811,5.223,20.42,11.337
		c4.388,4.784,6.006,10.629,7.465,16.579c1.229,5.01,3.909,9.187,7.152,12.942c4.22,4.887,4.748,9.469,0.66,14.676
		c-4.488,5.718-11.03,8.189-17.642,10.351c-2.174,0.71-4.538,0.841-6.815,1.237c-8.014,1.231-15.991,2.864-24.111,3.132
		c-6.647,0.22-13.298-0.329-19.647-2.476c-4.183-1.414-7.159-4.148-7.405-8.971c-1.254-4.219-4.963-6.957-6.509-11.064
		c-3.681-9.775-1.279-18.721,3.977-26.94c6.451-10.09,15.286-17.349,27.37-19.916c1.922-1.027,4.197,0.37,6.086-0.887
		c0.333,0,0.667,0,1,0c2.333,0.823,4.667,0.823,7,0C165.066,321.55,165.399,321.55,165.732,321.55z"/>
	<path fill-rule="evenodd" clip-rule="evenodd" fill="#C66345" d="M409.78,380.385c-1.13-4.103-4.728-6.724-6.277-10.617
		c-4.021-10.099-1.506-19.327,4.056-27.828c6.458-9.871,15.187-16.993,27.088-19.502c1.922-1.029,4.197,0.37,6.086-0.888
		c0.333,0,0.667,0,1,0c2.333,0.823,4.667,0.823,7,0c0.333,0,0.667,0,1,0c9.681,1.067,17.467,5.445,23.425,13.183
		c3.036,3.943,4.219,8.64,5.396,13.253c1.181,4.63,3.149,8.782,6.222,12.281c2.173,2.475,3.251,5.231,3.958,8.283c0,1,0,2,0,3
		c-0.813,6.022-4.648,9.988-9.721,12.34c-6.147,2.851-12.539,5.357-19.436,6.001c-2.154-0.05-4.296-0.008-6.367,0.715
		c-9.897,0.991-19.753,1.876-29.722,0.349C415.151,389.677,411.112,386.915,409.78,380.385z"/>
	<path fill-rule="evenodd" clip-rule="evenodd" fill="#A33B52" d="M356.732,321.55c7.465,2.572,14.796,5.222,20.406,11.323
		c4.392,4.775,6.018,10.613,7.472,16.558c1.226,5.007,3.887,9.189,7.118,12.95c4.248,4.944,4.711,9.366,0.763,14.668
		c-4.562,6.127-11.839,7.488-18.303,10.22c-1.938,0.819-4.163,0.961-6.258,1.413c-7.867,1.147-15.677,2.79-23.65,3.074
		c-6.839,0.243-13.641-0.27-20.159-2.467c-4.451-1.502-7.268-4.567-7.261-9.602c-4.567-6.521-9.075-12.909-8.235-21.658
		c1.517-15.794,17.261-33.017,33.021-35.592c1.918-0.753,3.917-0.205,5.871-0.372c2.731-0.264,5.533,0.568,8.215-0.516
		C356.065,321.55,356.399,321.55,356.732,321.55z"/>
	<path fill-rule="evenodd" clip-rule="evenodd" fill="#5433A2" d="M70.732,321.55c7.46,2.561,14.782,5.214,20.388,11.3
		c4.142,4.497,5.87,9.948,7.257,15.562c1.436,5.807,4.309,10.635,8.39,14.92c4.44,4.661,2.447,13.063-3.839,17.009
		c-6.551,4.111-14.159,5.451-21.226,8.207c-12.161,2.229-24.288,4.418-36.771,2.444c-6.775-1.071-12.544-3.104-14.979-10.266
		c-4.012-6.061-8.279-11.818-8.34-19.779c-0.075-9.746,3.446-17.953,9.642-24.9c4.252-4.769,9.163-9.092,15.197-11.846
		c3.09-1.411,6.169-2.375,9.575-2.135c1.889,0,3.777-0.002,5.666,0c2.674-0.265,5.418,0.569,8.04-0.516
		C70.066,321.55,70.399,321.55,70.732,321.55z"/>
	<path fill-rule="evenodd" clip-rule="evenodd" fill="#67992F" d="M220.832,379.583c2.574,7.535,8.521,9.067,15.7,10.182
		c11.979,1.858,23.609-1.045,35.408-1.077c-8.633,3.134-17.73,3.652-26.722,4.789c-1.191,0.151-2.73-0.575-3.485,1.073
		c-1.333,0-2.667,0-4,0c-2.333-0.823-4.667-0.823-7,0c-2.667,0-5.333,0-8,0c-2.288-1.939-5.205-1.428-7.844-1.911
		c-1.762-0.322-3.258-0.762-3.927-2.511c-0.705-1.841,0.289-3.341,1.572-4.386C215.204,383.571,218.055,381.623,220.832,379.583z"/>
	<path fill-rule="evenodd" clip-rule="evenodd" fill="#F05378" d="M316.86,379.688c2.806,7.371,8.684,9.005,15.946,10.103
		c11.897,1.797,23.419-1.14,35.124-1.108c-8.615,3.147-17.703,3.648-26.678,4.796c-1.211,0.154-2.723-0.497-3.521,1.072
		c-1.333,0-2.667,0-4,0c-2.333-0.823-4.667-0.823-7,0c-2,0-4,0-6,0c-3.027-1.922-6.599-1.093-9.861-1.904
		c-1.709-0.426-3.219-0.817-3.885-2.542c-0.705-1.823,0.271-3.348,1.54-4.369C311.196,383.585,314.07,381.688,316.86,379.688z"/>
	<path fill-rule="evenodd" clip-rule="evenodd" fill="#3960EE" d="M125.81,380.357c5.03,10.936,15.463,9.111,24.485,10.018
		c8.912,0.896,17.73-1.826,26.677-1.703c-8.635,3.144-17.738,3.67-26.735,4.804c-1.2,0.151-2.731-0.545-3.504,1.074
		c-1.333,0-2.667,0-4,0c-3-0.804-6-0.804-9,0c-2,0-4,0-6,0c-2.305-1.92-5.224-1.442-7.875-1.917
		c-1.774-0.316-3.262-0.798-3.906-2.556c-0.677-1.847,0.375-3.292,1.618-4.399C120.027,383.489,122.394,381.09,125.81,380.357z"/>
	<path fill-rule="evenodd" clip-rule="evenodd" fill="#744ECD" d="M20.732,387.55c2.784-3.401,6.569-5.533,10.114-7.969
		c2.569,7.62,8.569,9.094,15.796,10.186c11.876,1.794,23.384-0.871,35.06-1.22c-8.47,3.553-17.576,3.666-26.472,4.927
		c-1.202,0.171-2.715-0.507-3.499,1.076c-1.333,0-2.667,0-4,0c-3-0.804-6-0.804-9,0c-1.333,0-2.667,0-4,0
		c-3.02-1.076-6.212-0.474-9.314-0.904c-2.27-0.314-3.698-1.188-4.686-3.096C20.732,389.55,20.732,388.55,20.732,387.55z"/>
	<path fill-rule="evenodd" clip-rule="evenodd" fill="#FEC42C" d="M454.686,390.334c-6.821,2.109-13.951,2.171-20.941,3.16
		c-1.061,0.15-2.385-0.361-3.012,1.056c-1.333,0-2.667,0-4,0c-3-0.804-6-0.804-9,0c-1.333,0-2.667,0-4,0
		c-3.043-1.92-6.625-1.103-9.902-1.908c-1.724-0.424-3.23-0.851-3.867-2.589c-0.67-1.831,0.364-3.297,1.604-4.386
		c2.458-2.159,4.796-4.582,8.213-5.281c4.933,10.708,15.173,9.202,24.066,9.938c6.545,0.541,13.219-0.483,19.835-0.81
		C454.709,388.938,454.777,389.537,454.686,390.334z"/>
	<path fill-rule="evenodd" clip-rule="evenodd" fill="#F8F6FC" d="M20.732,390.55c2.828,2.788,6.677,2.042,10.06,2.909
		c1.32,0.338,2.998-0.611,3.94,1.091c-3.333,0-6.7-0.295-9.991,0.081C21.277,395.026,19.976,393.973,20.732,390.55z"/>
	<path fill-rule="evenodd" clip-rule="evenodd" fill="#C8BAEB" d="M38.732,394.55c3-1.659,6-1.575,9,0
		C44.732,394.55,41.732,394.55,38.732,394.55z"/>
	<path fill-rule="evenodd" clip-rule="evenodd" fill="#B2C1F8" d="M133.732,394.55c3-1.67,6-1.569,9,0
		C139.732,394.55,136.732,394.55,133.732,394.55z"/>
	<path fill-rule="evenodd" clip-rule="evenodd" fill="#FEE8AD" d="M417.732,394.55c3-1.654,6-1.576,9,0
		C423.732,394.55,420.732,394.55,417.732,394.55z"/>
	<path fill-rule="evenodd" clip-rule="evenodd" fill="#B25B6E" d="M355.732,321.55c-2.518,2.025-5.417,0.597-8.125,0.899
		c-0.237-0.237-0.298-0.449-0.182-0.637c0.108-0.175,0.21-0.263,0.307-0.263C350.399,321.55,353.065,321.55,355.732,321.55z"/>
	<path fill-rule="evenodd" clip-rule="evenodd" fill="#7054B1" d="M69.732,321.55c-2.518,2.025-5.417,0.596-8.125,0.898
		c-0.238-0.236-0.298-0.448-0.182-0.636c0.108-0.175,0.21-0.263,0.307-0.263C64.399,321.55,67.066,321.55,69.732,321.55z"/>
	<path fill-rule="evenodd" clip-rule="evenodd" fill="#CE7D63" d="M448.732,321.55c-2.333,1.622-4.667,1.533-7,0
		C444.065,321.55,446.399,321.55,448.732,321.55z"/>
	<path fill-rule="evenodd" clip-rule="evenodd" fill="#7B618A" d="M164.732,321.55c-2.333,1.633-4.667,1.523-7,0
		C160.066,321.55,162.399,321.55,164.732,321.55z"/>
	<path fill-rule="evenodd" clip-rule="evenodd" fill="#C2D5AC" d="M230.732,394.55c2.333-1.607,4.667-1.585,7,0
		C235.399,394.55,233.066,394.55,230.732,394.55z"/>
	<path fill-rule="evenodd" clip-rule="evenodd" fill="#F9BAC9" d="M326.732,394.55c2.333-1.597,4.667-1.58,7,0
		C331.399,394.55,329.065,394.55,326.732,394.55z"/>
	<path fill-rule="evenodd" clip-rule="evenodd" fill="#95B38A" d="M251.732,321.55c-1.816,1.755-4.038,0.727-6.085,0.888
		c0.109-0.288,0.138-0.584,0.085-0.888C247.732,321.55,249.732,321.55,251.732,321.55z"/>
	<path fill-rule="evenodd" clip-rule="evenodd" fill="#E3B3A4" d="M440.732,321.55c-1.813,1.77-4.03,0.774-6.086,0.888
		c0.081-0.291,0.109-0.587,0.086-0.888C436.732,321.55,438.732,321.55,440.732,321.55z"/>
	<path fill-rule="evenodd" clip-rule="evenodd" fill="#D29FAB" d="M347.732,321.55c-0.021,0.303-0.063,0.603-0.124,0.899
		c-1.987-0.004-3.975-0.008-5.962-0.012c0.089-0.29,0.117-0.586,0.086-0.888C343.732,321.55,345.732,321.55,347.732,321.55z"/>
	<path fill-rule="evenodd" clip-rule="evenodd" fill="#B2A3BB" d="M156.732,321.55c-1.814,1.769-4.031,0.772-6.086,0.887
		c0.088-0.29,0.117-0.585,0.086-0.887C152.732,321.55,154.732,321.55,156.732,321.55z"/>
	<path fill-rule="evenodd" clip-rule="evenodd" fill="#AB9CD2" d="M61.732,321.55c-0.021,0.303-0.062,0.603-0.124,0.899
		c-1.987-0.004-3.974-0.007-5.96-0.01c0.089-0.291,0.117-0.588,0.084-0.89C57.732,321.55,59.732,321.55,61.732,321.55z"/>
	<path fill-rule="evenodd" clip-rule="evenodd" fill="#FEFEFE" d="M255.323,385.583c-8.345,0.727-16.574-0.847-24.877-1.133
		c-1.755-0.061-3.179-1.011-3.961-2.641c-2.092-4.358-5.104-8.139-7.592-12.236c-4.661-7.675-2.566-15.499,0.821-22.89
		c9.369-20.443,32.213-28.022,51.959-17.356c6.747,3.645,11.544,9.161,12.807,16.856c1.174,7.147,4.431,13.143,8.623,18.783
		c3.495,4.702,2.967,8.478-2.063,11.837c-9.136,6.101-19.666,7.561-30.24,8.75C258.996,385.757,257.149,385.583,255.323,385.583z"/>
	<path fill-rule="evenodd" clip-rule="evenodd" fill="#FEFEFE" d="M156.148,386.01c-6.387-0.467-13.176-0.984-19.969-1.445
		c-2.392-0.162-4.106-1.267-5.09-3.415c-1.739-3.796-4.159-7.152-6.547-10.546c-4.607-6.549-3.781-13.568-1.178-20.469
		c10.655-28.233,41.585-32.598,59.433-16.171c3.652,3.361,6.07,7.552,6.762,12.455c0.987,6.998,4.318,12.827,8.396,18.347
		c3.719,5.033,3.186,8.614-2.152,12.18c-8.696,5.809-18.758,7.211-28.79,8.533C163.564,385.934,160.044,385.837,156.148,386.01z"/>
	<path fill-rule="evenodd" clip-rule="evenodd" fill="#FEFEFE" d="M446.134,385.705c-9.775,0.732-18.011-1.002-26.325-1.203
		c-1.754-0.043-3.326-0.813-4.12-2.424c-2.29-4.645-5.509-8.702-8.133-13.121c-3.74-6.302-2.498-12.93-0.032-19.258
		c10.793-27.701,41.173-32.022,58.988-16c3.695,3.323,6.249,7.456,6.96,12.376c1.036,7.174,4.383,13.192,8.587,18.855
		c3.545,4.775,2.955,8.314-2.023,11.901c-6.698,4.827-14.635,6.08-22.408,7.763C453.386,385.513,449.054,385.769,446.134,385.705z"
		/>
	<path fill-rule="evenodd" clip-rule="evenodd" fill="#FAC236" d="M454.686,390.334c-0.334-0.273-0.669-0.547-1.004-0.82
		c1.97-1.502,4.22-0.843,6.387-0.827C458.475,389.889,456.563,390.055,454.686,390.334z"/>
	<path fill-rule="evenodd" clip-rule="evenodd" fill="#FEFEFE" d="M347.096,386.009c-6.44-0.474-13.397-0.975-20.352-1.502
		c-1.556-0.118-2.974-0.696-3.817-2.048c-2.983-4.773-6.167-9.449-8.768-14.427c-3.859-7.384-1.524-14.71,1.639-21.533
		c9.284-20.029,31.507-27.599,51.171-17.574c7.153,3.646,12.21,9.35,13.549,17.438c1.183,7.148,4.499,13.12,8.693,18.756
		c3.362,4.519,2.892,8.205-1.933,11.532c-8.769,6.048-19.009,7.461-29.205,8.822C354.626,385.934,351.104,385.831,347.096,386.009z"
		/>
	<path fill-rule="evenodd" clip-rule="evenodd" fill="#FEFEFE" d="M61.103,386.009c-6.483-0.477-13.439-0.977-20.394-1.508
		c-1.555-0.119-2.961-0.712-3.805-2.068c-2.976-4.777-6.159-9.453-8.757-14.432c-3.857-7.39-1.505-14.721,1.664-21.533
		c9.402-20.215,31.999-27.707,51.622-17.283c6.928,3.681,11.799,9.315,13.098,17.215c1.146,6.968,4.333,12.825,8.411,18.346
		c3.749,5.075,3.238,8.623-2.118,12.184c-8.851,5.884-19.067,7.313-29.282,8.582C68.252,385.919,64.903,385.843,61.103,386.009z"/>
	<path fill-rule="evenodd" clip-rule="evenodd" fill="#EBFE9D" d="M251.518,331.557c15.375,0.075,28.338,12.215,28.198,26.404
		c-0.138,13.95-13.493,25.724-29.02,25.58c-15.076-0.139-28.001-12.234-27.947-26.153
		C222.803,343.36,236.035,331.479,251.518,331.557z"/>
	<path fill-rule="evenodd" clip-rule="evenodd" fill="#C2DDFE" d="M129.734,367.542c-5.514-15.561,0.728-24.221,9.527-30.681
		c9.793-7.19,20.855-7.115,31.628-1.633c9.142,4.652,14.927,15.601,13.785,25.254c-1.142,9.661-10.115,19.414-20.637,21.993
		c-13.391,3.281-24.203-0.826-32.359-11.937c-0.751-1.799,3.676-2.553,0.954-4.75c-0.313-2.474,1.878-2.558,3.264-3.362
		c1.079-0.627,2.54-0.928,1.536-2.702c-0.118-0.409-0.137-0.819-0.091-1.227c-1.042-2.372-2.205,0.174-3.292-0.079
		c0.102,0.3-1.49,0.144-0.206,0.732c0.26,0.119,0.623,0.066,0.938,0.207c0.497,0.548,0.613,1.182,0.496,1.875
		c-0.381,1.981-3.646,2.088-3.056,4.707C131.8,367.108,131.212,368.019,129.734,367.542z"/>
	<path fill-rule="evenodd" clip-rule="evenodd" fill="#F5F9FE" d="M129.734,367.542c1.013-0.35,1.655-1.064,2.025-2.048
		c0.224-0.355,0.483-0.4,0.782-0.089c1.424,0.219,3.154,0.044,3.125,2.245c-0.035,2.718-3.125,1.278-3.988,2.89
		C131.03,369.54,130.382,368.541,129.734,367.542z"/>
	<path fill-rule="evenodd" clip-rule="evenodd" fill="#FEEFA5" d="M440.006,383.545c-15.38-0.056-28.375-12.171-28.261-26.347
		c0.113-13.955,13.446-25.759,28.963-25.642c15.076,0.113,28.042,12.192,28.01,26.095
		C468.686,371.677,455.465,383.6,440.006,383.545z"/>
	<path fill-rule="evenodd" clip-rule="evenodd" fill="#FEE0DF" d="M347.06,383.549c-15.398-0.027-28.368-12.011-28.325-26.171
		c0.043-14.021,13.178-25.853,28.669-25.827c15.397,0.026,28.369,12.01,28.327,26.169
		C375.688,371.622,362.421,383.575,347.06,383.549z"/>
	<path fill-rule="evenodd" clip-rule="evenodd" fill="#BFBBFE" d="M34.659,349.437c3.022-10.735,15.913-18.857,29.125-17.866
		c13.327,0.999,25.501,12.489,25.921,24.698c0.644,18.752-20.226,32.521-38.589,25.46c-13.972-5.373-21.316-18.516-17.349-31.092
		c0.137-0.434,0.559-0.777,0.848-1.163c2.948,2.737,5.646,5.771,9.166,7.83C40.986,354.392,37.342,352.479,34.659,349.437z"/>
	<path fill-rule="evenodd" clip-rule="evenodd" fill="#306B18" d="M258.429,357.58c-2.481-0.614-4.784-2.113-4.81-5.761
		c-0.027-3.803,3.122-6.609,7.185-6.544c3.993,0.063,5.378,3.056,5.946,6.035C267.284,354.116,262.515,357.692,258.429,357.58z"/>
	<path fill-rule="evenodd" clip-rule="evenodd" fill="#306B18" d="M234.72,348.608c3.225,2.355,4.46,7.581,1.953,10.087
		c-2.813,2.812-6.093,2.896-9.104-0.079c0.189-0.742,0.669-1.212,1.373-1.476c5.338-0.726,5.723-1.268,4.473-6.322
		C233.162,349.676,233.879,349.105,234.72,348.608z"/>
	<path fill-rule="evenodd" clip-rule="evenodd" fill="#25630E" d="M240.723,359.132c1.112-0.316,1.591-0.584,2.054-0.561
		c1.919,0.097,3.994-0.854,5.704,0.56c0.473,0.392,0.114,1.199-0.548,1.632C246.656,361.598,243.83,361.08,240.723,359.132z"/>
	<path fill-rule="evenodd" clip-rule="evenodd" fill="#38711E" d="M225.863,355.55c-0.593-2.742,0.673-4.614,2.838-6.066
		c0.753,0.182,1.216,0.655,1.415,1.399c-0.099,1.976-0.891,3.63-2.319,4.989C227.088,356.153,226.428,356.135,225.863,355.55z"/>
	<path fill-rule="evenodd" clip-rule="evenodd" fill="#26640F" d="M229.932,350.637c-0.411-0.384-0.821-0.769-1.231-1.153
		c1.813-1.617,3.941-1.077,6.02-0.875c-0.332,0.586-0.663,1.172-0.995,1.759C232.524,351.347,231.234,351.07,229.932,350.637z"/>
	<path fill-rule="evenodd" clip-rule="evenodd" fill="#38711D" d="M225.863,355.55c0.615,0,1.23,0.001,1.845,0.001
		c0.756,0.316,1.15,0.872,1.126,1.703c-0.421,0.454-0.843,0.908-1.265,1.362C226.226,358.025,225.584,357.043,225.863,355.55z"/>
	<path fill-rule="evenodd" clip-rule="evenodd" fill="#6B5281" d="M163.711,355.683c-0.743-0.572-1.983-0.855-1.755-2.081
		c0.187-1.003,1.237-1.118,2.006-0.907c2.853,0.78,5.807,1.396,8.461,2.635c2.409,1.125,1.69,2.435-0.581,3.089
		c-1.523-0.364-3.173,0.124-4.636-0.668C165.838,357.404,164.729,356.621,163.711,355.683z"/>
	<path fill-rule="evenodd" clip-rule="evenodd" fill="#674C7C" d="M170.91,359.284c1.223,0.61,3.434,0.751,2.45,2.779
		c-0.635,1.311-2.397,0.61-3.577,0.087c-2.545-1.13-5.058-2.34-7.531-3.62c-0.611-0.316-1.621-1.021-0.315-1.713
		c0.397-0.211,1.158,0.263,1.752,0.423c1.154-0.765,2.363-0.148,3.547-0.145C168.508,357.744,169.881,358.225,170.91,359.284z"/>
	<path fill-rule="evenodd" clip-rule="evenodd" fill="#684E7E" d="M134.673,359.726c-1.349,0.484-2.646,1.485-4.38,0.292
		c1.738-2.458,4.446-3.259,6.948-4.338c0.801-0.345,1.798-0.255,2.176,0.59c0.661,1.475-0.451,2.06-1.607,2.504
		C136.974,359.78,136.071,360.568,134.673,359.726z"/>
	<path fill-rule="evenodd" clip-rule="evenodd" fill="#74608E" d="M132.542,365.405c-0.265-0.006-0.526,0.024-0.782,0.089
		c-1.546-3.091,1.702-2.969,2.85-4.254c0.967-0.745,1.992-1.391,3.127-1.851c0.94,0.105,2.076-0.051,2.417,1.14
		c0.345,1.205-0.596,1.675-1.497,2.086C136.618,363.545,134.58,364.475,132.542,365.405z"/>
	<path fill-rule="evenodd" clip-rule="evenodd" fill="#F8FBFE" d="M173.84,363.547c1.134,0.148,2.329,0.328,2.208,1.604
		c-0.117,1.241-1.114,2.101-2.419,2.049c-1.134-0.045-1.753-0.909-1.75-2.035C171.883,363.811,172.944,363.686,173.84,363.547z"/>
	<path fill-rule="evenodd" clip-rule="evenodd" fill="#6C5482" d="M148.456,364.255c2.566-0.978,4.153-1.288,5.485,0.204
		c0.539,0.603,0.29,1.415-0.287,1.716C151.578,367.26,150.395,365.854,148.456,364.255z"/>
	<path fill-rule="evenodd" clip-rule="evenodd" fill="#B8CDEF" d="M167.725,357.692c-1.345-0.15-2.69-0.302-4.035-0.452
		c0.007-0.52,0.014-1.038,0.021-1.558c1.316,0.366,2.632,0.731,3.948,1.098c0.308,0.182,0.42,0.377,0.338,0.587
		C167.911,357.584,167.821,357.692,167.725,357.692z"/>
	<path fill-rule="evenodd" clip-rule="evenodd" fill="#A6AFD5" d="M167.725,357.692c-0.033-0.304-0.055-0.607-0.066-0.912
		c1.395,0.546,2.789,1.092,4.184,1.638c-0.311,0.289-0.622,0.577-0.933,0.866C169.738,358.975,168.484,358.827,167.725,357.692z"/>
	<path fill-rule="evenodd" clip-rule="evenodd" fill="#ABB8DD" d="M137.736,359.39c-0.697,1.2-1.951,1.46-3.127,1.851
		c0.021-0.505,0.042-1.01,0.064-1.515c1.046-0.317,2.091-0.635,3.137-0.952C137.8,358.98,137.775,359.186,137.736,359.39z"/>
	<path fill-rule="evenodd" clip-rule="evenodd" fill="#C86B4C" d="M455.84,350.226c0.139,4.297-2.902,7.357-6.926,7.477
		c-3.753,0.111-5.955-1.725-6.227-5.5c-0.28-3.895,2.611-6.671,6.805-6.78C453.234,345.325,455.341,347.122,455.84,350.226z"/>
	<path fill-rule="evenodd" clip-rule="evenodd" fill="#C96D4D" d="M440.725,360.638c-1.65,1.922,0.899,5.955-3.054,6.755
		c-2.337,0.474-6.952-4.731-6.427-7.161c0.45-2.087,0.697-5.404,3.487-5.173C437.438,355.282,440.531,356.597,440.725,360.638z"/>
	<path fill-rule="evenodd" clip-rule="evenodd" fill="#C86C4C" d="M425.002,349.382c2.741,3.936,2.442,6.915-1.047,9.617
		c-3.182,2.464-5.99,2.124-8.293-1.284c-0.537-0.959-0.557-1.808,0.51-2.428c6.393,1.25,6.827,0.931,7.113-5.237
		C423.68,349.366,424.183,348.965,425.002,349.382z"/>
	<path fill-rule="evenodd" clip-rule="evenodd" fill="#CC7657" d="M425.002,349.382c-0.426,0.396-0.852,0.793-1.277,1.189
		c-1.863,0.737-3.795,1.181-5.794,1.349c-0.702-0.24-1.164-0.704-1.333-1.438C419.033,347.322,421.798,346.669,425.002,349.382z"/>
	<path fill-rule="evenodd" clip-rule="evenodd" fill="#CB7250" d="M416.598,350.482c0.436,0.47,0.871,0.939,1.307,1.409
		c0.752,1.603,0.1,2.74-1.211,3.66c-0.856,0.476-0.949,1.316-1.031,2.163C413.729,355.014,414.621,352.678,416.598,350.482z"/>
	<path fill-rule="evenodd" clip-rule="evenodd" fill="#A9475C" d="M354.758,357.626c-2.97-0.311-4.979-2.396-5.289-5.975
		c-0.33-3.818,2.295-6.545,6.263-6.776c3.588-0.21,7.154,2.827,7.164,6.1C362.904,353.978,358.917,357.539,354.758,357.626z"/>
	<path fill-rule="evenodd" clip-rule="evenodd" fill="#A74258" d="M324.682,349.457c2.828-2.574,5.726-2.786,7.979,0.48
		c2.343,3.396,1.32,6.788-1.618,9.244c-3.094,2.585-6.082,1.865-8.384-1.462c-0.531-0.964-0.558-1.817,0.521-2.435
		c0.492-0.058,0.978,0.005,1.443,0.173c2.153,0.781,4.607,1.342,5.072-1.667c0.491-3.183-2.674-1.949-4.238-2.654
		C324.805,350.758,324.288,350.315,324.682,349.457z"/>
	<path fill-rule="evenodd" clip-rule="evenodd" fill="#A9455B" d="M338.057,355.867c2.956,1.832,5.279,1.168,7.509-1.87
		c0.375,3.362-0.357,5.769-2.807,6.259C340.337,360.741,338.569,358.921,338.057,355.867z"/>
	<path fill-rule="evenodd" clip-rule="evenodd" fill="#AC4C60" d="M323.659,355.557c-0.808,0.502-0.914,1.327-1,2.162
		c-2.194-3.456-0.748-6.021,2.022-8.262c0.41,0.392,0.82,0.784,1.231,1.176C326.266,352.779,325.365,354.353,323.659,355.557z"/>
	<path fill-rule="evenodd" clip-rule="evenodd" fill="#5737A4" d="M62.617,361.166c-2.352,2.156-5.408,3.085-8.354,4.122
		c-2.655,0.935-4-0.285-3.129-2.993c0.833-2.587,0.057-6.445,3.129-7.396c2.723-0.842,4.462,2.34,6.482,3.976
		C61.493,359.479,62.539,359.864,62.617,361.166z"/>
	<path fill-rule="evenodd" clip-rule="evenodd" fill="#5737A5" d="M80.145,344.768c0.243,0.134,0.727,0.282,1.043,0.599
		c0.727,0.727,0.479,1.534-0.132,2.166c-3.09,3.189-6.201,6.358-9.335,9.504c-0.626,0.628-1.548,0.835-2.249,0.317
		c-0.417-0.308-0.653-1.115-0.644-1.693C68.848,354.367,78.7,344.819,80.145,344.768z"/>
	<path fill-rule="evenodd" clip-rule="evenodd" fill="#5737A4" d="M34.659,349.437c4.268,1.533,7.387,4.826,11.08,7.24
		c0.768,0.503,1.168,1.363,0.764,2.141c-0.588,1.13-1.796,0.92-2.573,0.354c-3.672-2.672-7.807-4.938-9.315-9.698L34.659,349.437z"
		/>
	<path fill-rule="evenodd" clip-rule="evenodd" fill="#6346AF" d="M44.699,350.65c1.693,0.64,2.558-2.387,4.329-1.024
		c0.614,0.473,0.122,1.205-0.323,1.683c-1.595,1.717-3.309,1.953-5.129,0.329C43.682,351.003,44.271,350.919,44.699,350.65z"/>
	<path fill-rule="evenodd" clip-rule="evenodd" fill="#5838A5" d="M44.699,350.65c-0.374,0.329-0.748,0.658-1.123,0.986
		c-0.97-0.563-2.069-1.045-1.621-2.578C43.328,348.843,43.739,350.232,44.699,350.65z"/>
	<path fill-rule="evenodd" clip-rule="evenodd" fill="#F8FAF8" d="M255.703,351.391c1.094-2.031,2.32-3.93,4.818-3.574
		c1.873,0.267,4.434,0.934,4.008,3.361c-0.426,2.431-2.291,4.37-5.209,4.279C256.737,355.376,256.766,352.913,255.703,351.391z"/>
	<path fill-rule="evenodd" clip-rule="evenodd" fill="#F6F8F5" d="M228.834,357.254c-0.375-0.567-0.751-1.136-1.126-1.703
		c0.018-1.966,1.455-3.289,2.224-4.914c1.151-1.685,2.503-0.543,3.793-0.27c3.101,1.598,2.483,4.081,0.983,6.146
		C233.263,358.505,231.063,359.152,228.834,357.254z"/>
	<path fill-rule="evenodd" clip-rule="evenodd" fill="#FBF6F5" d="M453.689,351.216c-0.898,2.283-2.115,4.202-4.931,4.002
		c-2.057-0.146-3.484-1.218-3.251-3.468c0.245-2.354,1.463-4.238,4.071-3.91C451.389,348.067,453.618,348.501,453.689,351.216z"/>
	<path fill-rule="evenodd" clip-rule="evenodd" fill="#F9C4C1" d="M437.563,361.258c-0.144,0.585-0.195,2.025-1.382,1.754
		c-1.42-0.326-2.62-1.44-2.27-3.234c0.177-0.903,0.434-2.11,1.754-1.756C437.029,358.389,437.902,359.336,437.563,361.258z"/>
	<path fill-rule="evenodd" clip-rule="evenodd" fill="#FCF7F6" d="M416.693,355.552c0.403-1.221,0.808-2.44,1.211-3.661
		c1.708-1.464,3.436-2.84,5.82-1.319c1.399,2.165,1.676,4.219-0.769,5.84C420.654,357.938,418.462,358.157,416.693,355.552z"/>
	<path fill-rule="evenodd" clip-rule="evenodd" fill="#FCF9FA" d="M353.756,354.448c-1.472-1.853-3.063-3.694-0.558-5.922
		c2.29-2.035,4.549-0.732,6.352,0.528c2.901,2.03-0.001,3.613-0.863,5.315C357.06,355.468,355.413,355.303,353.756,354.448z"/>
	<path fill-rule="evenodd" clip-rule="evenodd" fill="#AA4A5F" d="M353.756,354.448c1.648,0.289,3.296,0.506,4.931-0.078
		C357.07,356.143,355.425,356.049,353.756,354.448z"/>
	<path fill-rule="evenodd" clip-rule="evenodd" fill="#F3E7EA" d="M323.659,355.557c0.077-1.95,1.392-3.333,2.254-4.924
		c2.137-1.056,4.093-1.309,5.275,1.33c0.983,2.194-0.034,4.034-1.692,5.121C327.264,358.546,325.12,357.93,323.659,355.557z"/>
	<path fill-rule="evenodd" clip-rule="evenodd" fill="#E89AA5" d="M53.561,362.223c0.563-2.071,0.94-3.46,1.343-4.941
		c1.868,0.366,3.538,1.567,3.299,2.974C57.927,361.869,55.717,361.79,53.561,362.223z"/>
	<rect x="12.689" y="100" fill-rule="evenodd" clip-rule="evenodd" fill="none" width="472" height="214"/>
	<text transform="matrix(1 0 0 1 71.9937 188.0996)"><tspan x="0" y="0" fill="#FFFFFF" font-family="'Hobo-BT'" font-size="100">spoide’s</tspan><tspan x="62.948" y="120" fill="#FFFFFF" font-family="'Hobo-BT'" font-size="100">slime</tspan></text>
</g>
</svg>
