<?xml version="1.0" encoding="utf-8"?>
<!-- Generator: Adobe Illustrator 16.0.0, SVG Export Plug-In . SVG Version: 6.00 Build 0)  -->
<!DOCTYPE svg PUBLIC "-//W3C//DTD SVG 1.1//EN" "http://www.w3.org/Graphics/SVG/1.1/DTD/svg11.dtd">
<svg version="1.1" id="_x34_점_xA0_이미지_1_" xmlns="http://www.w3.org/2000/svg" xmlns:xlink="http://www.w3.org/1999/xlink"
	 x="0px" y="0px" width="20.572px" height="20.572px" viewBox="0 0 20.572 20.572" enable-background="new 0 0 20.572 20.572"
	 xml:space="preserve">
<path fill-rule="evenodd" clip-rule="evenodd" fill="#730F25" d="M4.275,17.255C2.574,14.57,3.447,10.99,5.818,9.183
	C6.163,8.92,6.404,8.659,6.37,8.178c-0.015-0.211,0.099-0.56,0.254-0.633c1.011-0.474,0.983-1.458,1.277-2.318
	c0.41-1.203,1.953-1.855,3.339-1.53c1.311,0.308,2.07,1.414,1.937,2.831c-0.01,0.1-0.094,0.275-0.076,0.284
	c1.401,0.717,0.704,2.358,1.515,3.378c1.219,1.534,1.781,3.435,2.534,5.217c0.423,0.999-0.218,1.677-0.927,2.273
	c-0.176,0.006-0.304,0.079-0.367,0.25l0.012-0.007c-2.298,0.239-4.592,0.544-6.895,0.697C7.276,18.733,5.541,18.739,4.275,17.255z
	 M11.324,4.722C10.693,4.087,10,4.311,9.348,4.637C8.63,4.997,8.386,5.645,8.394,6.433c0.003,0.311,0.393,0.8-0.242,0.917
	C7.546,7.463,6.998,7.762,7.091,8.363c0.092,0.591,0.734,0.729,1.321,0.702c1.412,0.396,2.827,0.246,4.233-0.009
	c0.479-0.087,0.982-0.29,0.674-0.967c-0.286-0.629-0.709-0.466-1.14-0.162c-0.113-0.044-0.226-0.088-0.339-0.133
	c-0.02-0.34,0.256-0.523,0.4-0.779C12.826,5.978,12.396,4.934,11.324,4.722z M6.814,9.413c-0.08-0.159-0.232-0.178-0.333-0.081
	c-1.722,1.65-2.763,3.597-2.305,6.044c0.23,1.228,1.105,2.523,2.894,2.566c1.097,0.027,2.189,0.126,3.275-0.057
	c1.653-0.278,3.355-0.138,4.985-0.619c1.179-0.35,1.495-1.065,0.952-2.153c-0.273-0.548-0.51-1.118-0.709-1.697
	c-0.415-1.211-1.048-2.295-1.806-3.315c-0.212-0.286-0.417-0.587-0.803-0.213C10.878,10.2,8.799,10.413,6.814,9.413z"/>
<path fill-rule="evenodd" clip-rule="evenodd" fill="#EC587B" d="M4.275,17.255c1.265,1.483,3.001,1.478,4.697,1.365
	c2.303-0.153,4.597-0.458,6.895-0.697c-1.175,0.873-2.601,0.968-3.957,1.148c-2.478,0.332-4.979,0.354-7.474,0.109
	c-0.559-0.055-1.332,0.032-1.418-0.705C2.929,17.705,3.616,17.422,4.275,17.255z"/>
<path fill-rule="evenodd" clip-rule="evenodd" fill="#F26788" d="M2.826,11.684c-0.123,0.222-0.015,0.687-0.44,0.655
	c-0.4-0.03-0.804-0.233-0.993-0.622c-0.162-0.331,0.081-0.402,0.366-0.375c0.165,0.016,0.362,0.289,0.486-0.059
	c0.069-0.191,0.146-0.421,0.412-0.268C2.903,11.159,2.858,11.42,2.826,11.684z"/>
<path fill-rule="evenodd" clip-rule="evenodd" fill="#F16284" d="M18.863,4.703c-0.167,0.514-0.581,0.584-0.983,0.647
	c-0.222,0.035-0.45-0.042-0.382-0.321c0.108-0.442,0.444-0.683,0.884-0.731C18.666,4.267,18.788,4.484,18.863,4.703z"/>
<path fill-rule="evenodd" clip-rule="evenodd" fill="#F16284" d="M4.431,5.555C4.107,5.573,3.866,5.541,3.917,5.262
	c0.082-0.453,0.427-0.689,0.86-0.753c0.272-0.041,0.495,0.13,0.473,0.407C5.205,5.466,4.677,5.4,4.431,5.555z"/>
<path fill-rule="evenodd" clip-rule="evenodd" fill="#F16284" d="M18.542,6.521c0.008,0.385-0.118,0.635-0.441,0.616
	c-0.445-0.025-0.558-0.44-0.682-0.771c-0.111-0.295,0.098-0.429,0.374-0.432C18.236,5.929,18.43,6.22,18.542,6.521z"/>
<path fill-rule="evenodd" clip-rule="evenodd" fill="#F16284" d="M4.227,6.134C4.639,6.161,4.9,6.388,4.958,6.803
	C5,7.108,4.848,7.36,4.525,7.343C4.078,7.32,3.968,6.904,3.841,6.574C3.729,6.28,3.938,6.157,4.227,6.134z"/>
<path fill-rule="evenodd" clip-rule="evenodd" fill="#F15D80" d="M16.413,4.002c0.027-0.27-0.026-0.665,0.32-0.66
	c0.473,0.007,0.522,0.463,0.57,0.836c0.038,0.303-0.047,0.575-0.411,0.567C16.392,4.736,16.445,4.33,16.413,4.002z"/>
<path fill-rule="evenodd" clip-rule="evenodd" fill="#F15D80" d="M2.834,4.169c0.041-0.254-0.025-0.651,0.351-0.618
	c0.465,0.04,0.504,0.492,0.543,0.865c0.033,0.312-0.084,0.565-0.444,0.535C2.792,4.909,2.868,4.501,2.834,4.169z"/>
<path fill-rule="evenodd" clip-rule="evenodd" fill="#F15B7E" d="M15.704,4.921c0.39,0.008,0.713,0.051,0.718,0.458
	c0.005,0.355-0.279,0.429-0.569,0.409c-0.335-0.023-0.758-0.043-0.771-0.471C15.066,4.901,15.49,4.974,15.704,4.921z"/>
<path fill-rule="evenodd" clip-rule="evenodd" fill="#F15B7E" d="M2.233,5.999C1.911,5.946,1.481,5.93,1.504,5.493
	c0.02-0.384,0.426-0.354,0.724-0.36c0.331-0.006,0.639,0.081,0.616,0.485C2.824,5.968,2.527,6.001,2.233,5.999z"/>
<path fill-rule="evenodd" clip-rule="evenodd" fill="#F16284" d="M17.062,6.518c-0.026,0.31-0.073,0.636-0.458,0.663
	c-0.335,0.023-0.48-0.212-0.421-0.526c0.063-0.33,0.156-0.696,0.591-0.674C17.09,5.996,17.068,6.282,17.062,6.518z"/>
<path fill-rule="evenodd" clip-rule="evenodd" fill="#F16284" d="M3.487,6.703C3.449,7.014,3.44,7.385,2.972,7.384
	c-0.293,0-0.413-0.228-0.373-0.481C2.65,6.577,2.726,6.208,3.154,6.185C3.483,6.167,3.486,6.438,3.487,6.703z"/>
<path fill-rule="evenodd" clip-rule="evenodd" fill="#EC587B" d="M15.856,17.93c0.063-0.171,0.191-0.244,0.367-0.25
	C16.154,17.842,16.042,17.94,15.856,17.93z"/>
<path fill-rule="evenodd" clip-rule="evenodd" fill="#FCDDDC" d="M6.814,9.413c1.985,1,4.064,0.787,6.15,0.475
	c0.229,0.338,0.47,0.669,0.686,1.015c1.35,2.169,0.821,4.771-1.321,5.807c-1.772,0.857-3.671,0.845-5.545,0.192
	c0.717-0.401,0.579-1.025,0.145-1.41c-0.665-0.59-0.949,0.215-1.335,0.565c-0.839-0.789-1.091-2.048-0.615-3.083
	c-0.142,0.753,0.077,1.338,0.903,1.391c0.648,0.041,0.97-0.438,0.986-1.06c0.02-0.815-0.664-1.107-1.614-0.712
	c-0.487-0.595-0.011-1.064,0.261-1.498C5.889,10.499,6.375,9.971,6.814,9.413z M10.568,15.758c0.018-0.743-0.438-0.607-0.83-0.397
	c-0.659,0.353-0.529,0.933,0.311,1.498c0.397,0.009,0.85,0.107,1.018-0.403C11.204,16.038,10.951,15.836,10.568,15.758z
	 M9.661,13.264c-0.009,0.862,0.44,1.108,0.99,1.129c0.699,0.025,0.97-0.53,0.976-1.088c0.006-0.556-0.367-0.996-0.987-0.95
	C10.011,12.402,9.671,12.808,9.661,13.264z"/>
<path fill-rule="evenodd" clip-rule="evenodd" fill="#FAF6F7" d="M6.784,16.902c1.874,0.652,3.772,0.665,5.545-0.192
	c2.143-1.035,2.671-3.638,1.321-5.807c-0.216-0.346-0.456-0.677-0.686-1.015c0.386-0.374,0.591-0.073,0.803,0.213
	c0.758,1.02,1.391,2.104,1.806,3.315c0.199,0.579,0.436,1.149,0.709,1.697c0.543,1.088,0.227,1.804-0.952,2.153
	c-1.63,0.481-3.332,0.341-4.985,0.619c-1.086,0.183-2.178,0.084-3.275,0.057c-1.789-0.043-2.664-1.339-2.894-2.566
	c-0.458-2.447,0.583-4.395,2.305-6.044c0.102-0.097,0.254-0.078,0.333,0.081c-0.439,0.558-0.925,1.085-1.3,1.682
	c-0.272,0.434-0.748,0.903-0.261,1.498c-0.091,0.127-0.183,0.254-0.275,0.381c-0.476,1.035-0.224,2.294,0.615,3.083
	c0.364,0.512,0.617-0.221,0.946-0.085C6.71,16.258,6.39,16.673,6.784,16.902z"/>
<path fill-rule="evenodd" clip-rule="evenodd" fill="#EE5478" d="M11.84,7.793c0.113,0.045,0.226,0.089,0.339,0.133
	c-0.152,0.486-0.591,0.646-0.994,0.765c-0.9,0.267-1.839,0.319-2.773,0.373c-0.586,0.027-1.229-0.11-1.321-0.702
	c-0.093-0.601,0.456-0.9,1.062-1.013c0.635-0.118,0.245-0.606,0.242-0.917C8.386,5.645,8.63,4.997,9.348,4.637
	c0.652-0.327,1.345-0.55,1.976,0.085c0.431,0.625,0.676,1.261,0.07,1.919c-0.491,0.535-1.199,0.703-2.102,1.044
	C10.332,7.843,11.073,8.078,11.84,7.793z"/>
<path fill-rule="evenodd" clip-rule="evenodd" fill="#FBB6C5" d="M11.84,7.793c-0.768,0.284-1.509,0.049-2.548-0.108
	c0.903-0.341,1.61-0.509,2.102-1.044c0.605-0.658,0.36-1.294-0.07-1.919c1.072,0.211,1.502,1.256,0.917,2.292
	C12.096,7.271,11.821,7.453,11.84,7.793z"/>
<path fill-rule="evenodd" clip-rule="evenodd" fill="#FAB7C6" d="M8.412,9.065c0.934-0.054,1.874-0.106,2.773-0.373
	c0.403-0.12,0.842-0.279,0.994-0.765c0.431-0.304,0.854-0.467,1.14,0.162c0.309,0.678-0.194,0.88-0.674,0.967
	C11.239,9.311,9.823,9.46,8.412,9.065z"/>
<path fill-rule="evenodd" clip-rule="evenodd" fill="#76162B" d="M4.979,12.974c0.092-0.127,0.184-0.254,0.275-0.381
	c0.951-0.396,1.634-0.104,1.614,0.712c-0.016,0.622-0.338,1.101-0.986,1.06C5.056,14.312,4.837,13.727,4.979,12.974z M6.299,13.338
	c-0.038-0.256-0.175-0.462-0.445-0.473c-0.325-0.013-0.354,0.272-0.363,0.508c-0.007,0.213,0.067,0.408,0.339,0.415
	C6.131,13.796,6.247,13.608,6.299,13.338z"/>
<path fill-rule="evenodd" clip-rule="evenodd" fill="#76162B" d="M9.661,13.264c0.01-0.456,0.35-0.862,0.978-0.909
	c0.62-0.046,0.993,0.395,0.987,0.95c-0.006,0.558-0.276,1.113-0.976,1.088C10.101,14.373,9.652,14.126,9.661,13.264z M11.079,13.426
	c-0.024-0.291-0.243-0.387-0.479-0.434c-0.287-0.058-0.465,0.073-0.455,0.376c0.01,0.271,0.179,0.444,0.441,0.476
	C10.873,13.877,10.993,13.666,11.079,13.426z"/>
<path fill-rule="evenodd" clip-rule="evenodd" fill="#791A2F" d="M6.784,16.902c-0.394-0.229-0.074-0.644-0.244-0.93
	c-0.329-0.136-0.582,0.597-0.946,0.085c0.386-0.351,0.67-1.155,1.335-0.565C7.363,15.876,7.501,16.5,6.784,16.902z"/>
<path fill-rule="evenodd" clip-rule="evenodd" fill="#802639" d="M10.048,16.859c-0.84-0.565-0.969-1.146-0.311-1.498
	c0.393-0.21,0.848-0.346,0.83,0.397C9.661,15.779,10.165,16.465,10.048,16.859z"/>
<path fill-rule="evenodd" clip-rule="evenodd" fill="#FAF6F7" d="M10.048,16.859c0.117-0.394-0.387-1.08,0.52-1.101
	c0.383,0.078,0.636,0.279,0.498,0.697C10.898,16.966,10.446,16.868,10.048,16.859z"/>
<path fill-rule="evenodd" clip-rule="evenodd" fill="#EDE2E4" d="M6.299,13.338c-0.052,0.27-0.168,0.458-0.468,0.45
	c-0.272-0.007-0.347-0.202-0.339-0.415c0.009-0.235,0.038-0.521,0.363-0.508C6.124,12.876,6.261,13.083,6.299,13.338z"/>
<path fill-rule="evenodd" clip-rule="evenodd" fill="#EDE2E4" d="M11.079,13.426c-0.086,0.239-0.206,0.451-0.492,0.418
	c-0.262-0.031-0.431-0.204-0.441-0.476c-0.011-0.303,0.167-0.434,0.455-0.376C10.835,13.04,11.054,13.135,11.079,13.426z"/>
</svg>
