<?xml version="1.0" encoding="utf-8"?>
<!-- Generator: Adobe Illustrator 16.0.0, SVG Export Plug-In . SVG Version: 6.00 Build 0)  -->
<!DOCTYPE svg PUBLIC "-//W3C//DTD SVG 1.1//EN" "http://www.w3.org/Graphics/SVG/1.1/DTD/svg11.dtd">
<svg version="1.1" id="_x31_점_xA0_이미지_1_" xmlns="http://www.w3.org/2000/svg" xmlns:xlink="http://www.w3.org/1999/xlink"
	 x="0px" y="0px" width="20.572px" height="20.572px" viewBox="0 0 20.572 20.572" enable-background="new 0 0 20.572 20.572"
	 xml:space="preserve">
<path fill-rule="evenodd" clip-rule="evenodd" fill="#834044" d="M4.495,17.346c-1.679-2.707-0.843-6.295,1.648-8.153
	c0.298-0.223,0.456-0.459,0.45-0.847c-0.004-0.222,0.069-0.562,0.222-0.65C7.763,7.147,7.85,6.184,8.156,5.279
	c0.407-1.201,2-1.834,3.364-1.484c1.26,0.324,1.992,1.395,1.896,2.778c-0.007,0.101-0.089,0.274-0.063,0.289
	c1.293,0.75,0.68,2.318,1.441,3.315c1.216,1.592,1.819,3.504,2.587,5.323c0.421,0.996-0.219,1.682-0.936,2.273
	c-0.169,0.012-0.301,0.078-0.366,0.244l0.02-0.01c-1.688,0.176-3.376,0.381-5.067,0.521C8.752,18.721,6.395,19.278,4.495,17.346z
	 M11.563,4.814C10.942,4.184,10.25,4.389,9.6,4.709C8.937,5.037,8.584,5.626,8.65,6.373c0.054,0.611,0.112,1.103-0.725,1.212
	C7.586,7.629,7.269,8.007,7.278,8.415C7.289,8.867,7.715,8.979,8.062,9.1c0.187,0.065,0.401,0.047,0.604,0.067
	c1.405,0.369,2.813,0.24,4.211-0.021c0.48-0.089,0.972-0.297,0.673-0.965c-0.279-0.624-0.705-0.469-1.139-0.172
	c-0.117-0.053-0.233-0.106-0.351-0.16c0.018-0.335,0.3-0.521,0.439-0.784C13.045,6.035,12.617,5.032,11.563,4.814z M7.056,9.513
	c-0.08-0.148-0.215-0.181-0.339-0.096c-1.631,1.113-2.833,4.25-2.3,6.143c0.361,1.279,1.179,2.426,2.876,2.471
	c1.062,0.027,2.118,0.139,3.172-0.043c1.686-0.287,3.423-0.143,5.086-0.629c1.187-0.348,1.508-1.064,0.967-2.15
	c-0.272-0.549-0.515-1.117-0.713-1.697c-0.414-1.211-1.046-2.295-1.805-3.317c-0.215-0.289-0.422-0.577-0.808-0.218
	C11.112,10.293,9.039,10.504,7.056,9.513z"/>
<path fill-rule="evenodd" clip-rule="evenodd" fill="#EC1115" d="M3.288,3.458C3.392,4.229,3.243,4.868,2.369,5.14
	C3.481,5.628,4.5,5.009,5.55,4.984C5.9,4.977,6.386,4.717,6.463,5.283c0.064,0.476-0.441,0.491-0.744,0.496
	C5.007,5.792,4.752,6.053,4.942,6.768c0.082,0.309,0.08,0.942-0.247,0.83C4.193,7.426,3.314,8.053,3.189,7.095
	C3.074,6.217,2.749,6.081,1.992,6.423c-0.253,0.115-0.69,0.424-0.894-0.042C0.837,5.784,1.456,5.783,1.803,5.586
	c-0.24-0.263-0.788-0.145-0.748-0.653c0.032-0.417,0.403-0.458,0.677-0.494c0.763-0.101,0.878-0.49,0.627-1.136
	C2.274,3.084,2.247,2.837,2.226,2.6C2.187,2.155,2.273,1.827,2.834,2.096C2.913,2.134,2.978,2.2,3.049,2.253
	c0.036-0.49,0.33-0.698,0.739-0.472c0.35,0.193,0.324,0.654,0.366,1.02c0.094,0.833,0.394,1.311,1.345,0.958
	C5.801,3.646,6.25,3.526,6.34,4.006C6.432,4.495,5.93,4.45,5.636,4.553C5.445,4.62,5.22,4.591,5.032,4.663
	c-1.048,0.404-1.461-0.07-1.514-1.067C3.494,3.447,3.47,3.298,3.446,3.149C3.271,3.189,3.335,3.353,3.288,3.458z"/>
<path fill-rule="evenodd" clip-rule="evenodd" fill="#7B56CB" d="M4.495,17.346c1.899,1.932,4.257,1.375,6.536,1.184
	c1.691-0.141,3.379-0.346,5.067-0.521c-1.17,0.883-2.597,0.973-3.953,1.154c-2.479,0.332-4.982,0.35-7.478,0.109
	c-0.56-0.055-1.337,0.031-1.428-0.695C3.144,17.807,3.836,17.52,4.495,17.346z"/>
<path fill-rule="evenodd" clip-rule="evenodd" fill="#ED1317" d="M17.31,5.45c-0.061,0.473-0.08,1.13-0.602,1.168
	c-0.723,0.053-1.49-0.092-2.158-0.466c-0.073-0.041-0.105-0.253-0.073-0.36c0.05-0.168,0.213-0.282,0.395-0.269
	c0.271,0.02,0.546,0.053,0.805,0.13c0.522,0.156,0.843,0.06,0.882-0.555c0.017-0.269,0.085-0.541,0.167-0.799
	c0.139-0.434,0.152-1.196,0.865-0.386c0.14,0.158,0.309,0.017,0.465-0.029c0.509-0.15,0.603,0.144,0.552,0.549
	c-0.034,0.27-0.067,0.549-0.161,0.801c-0.236,0.631-0.043,0.944,0.626,1.052c0.303,0.048,0.758,0.083,0.688,0.575
	c-0.065,0.469-0.484,0.374-0.81,0.402c-0.041-0.416-0.346-0.386-0.638-0.377c-0.804-0.213-0.811-0.826-0.741-1.477
	c0.178-0.231,0.234-0.632-0.017-0.644C17.125,4.746,17.383,5.206,17.31,5.45z"/>
<path fill-rule="evenodd" clip-rule="evenodd" fill="#EC1115" d="M18.711,7.275c0.211,0.464,1.358,0.103,0.996,0.921
	c-0.272,0.618-0.894,0.026-1.338-0.083c-0.596-0.145-0.588,0.234-0.672,0.613c-0.108,0.49-1.201,0.98-1.625,0.733
	c-0.391-0.229-0.25-0.629-0.177-0.932c0.151-0.624-0.022-0.867-0.678-0.883c-0.327-0.008-0.91,0.018-0.847-0.503
	c0.077-0.639,0.635-0.304,1-0.288c0.984,0.042,1.94,0.462,2.947,0.222C18.45,7.143,18.581,7.209,18.711,7.275z"/>
<path fill-rule="evenodd" clip-rule="evenodd" fill="#ED1619" d="M17.31,5.45c0.073-0.244-0.186-0.704,0.245-0.685
	c0.251,0.011,0.194,0.412,0.017,0.644C17.485,5.422,17.397,5.437,17.31,5.45z"/>
<path fill-rule="evenodd" clip-rule="evenodd" fill="#ED1619" d="M18.711,7.275c-0.131-0.066-0.262-0.133-0.393-0.199
	c-0.002-0.063-0.004-0.127-0.006-0.191c0.292-0.009,0.597-0.039,0.638,0.377C18.871,7.267,18.792,7.271,18.711,7.275z"/>
<path fill-rule="evenodd" clip-rule="evenodd" fill="#EC1216" d="M3.288,3.458c0.047-0.105-0.018-0.269,0.158-0.31
	C3.47,3.298,3.494,3.447,3.518,3.596C3.441,3.55,3.365,3.504,3.288,3.458z"/>
<path fill-rule="evenodd" clip-rule="evenodd" fill="#7B56CB" d="M16.079,18.018c0.065-0.166,0.197-0.232,0.366-0.244
	C16.378,17.94,16.26,18.026,16.079,18.018z"/>
<path fill-rule="evenodd" clip-rule="evenodd" fill="#BFBAFB" d="M7.056,9.513c1.983,0.991,4.056,0.78,6.137,0.462
	c0.229,0.338,0.473,0.669,0.686,1.017c1.417,2.311,0.768,4.98-1.599,5.957c-1.7,0.703-3.517,0.682-5.283,0.043
	c0.619-0.232,0.51-0.709,0.354-1.16c-0.104-0.301-0.359-0.539-0.693-0.424c-0.415,0.145-0.781,0.393-0.667,0.943l0.012-0.02
	c-0.044,0.049-0.095,0.059-0.153,0.029c-0.929-1.029-1.029-2.236-0.752-3.523c0.045,0.373,0.054,0.744,0.247,1.092
	c0.236,0.426,0.621,0.398,0.986,0.336c0.43-0.076,0.748-0.35,0.869-0.781c0.112-0.402-0.224-0.533-0.484-0.684
	c-0.438-0.252-0.776-0.686-1.327-0.734C5.562,10.965,6.557,10.401,7.056,9.513z M6.614,11.602c-0.037-0.025-0.075-0.049-0.112-0.074
	c0.026,0.037,0.053,0.072,0.08,0.109c-0.088,0.344,0.171,0.484,0.382,0.652c0.186,0.146,0.375,0.158,0.543-0.025
	c0.139-0.152,0.293-0.348,0.16-0.541c-0.168-0.244-0.333,0.006-0.512,0.049C6.998,11.809,6.797,11.665,6.614,11.602z M10.283,16.948
	c0.418,0.049,0.856,0.092,1.03-0.408c0.128-0.367-0.021-0.666-0.394-0.828c-0.398-0.658-0.885-0.5-1.21-0.008
	C9.301,16.321,9.703,16.708,10.283,16.948z M12.182,12.952c-0.013-0.285-0.013-0.654-0.479-0.705
	c-0.544-0.059-1.821,0.789-1.834,1.201c-0.02,0.656,0.413,0.93,0.961,0.98C11.497,14.493,12.173,13.739,12.182,12.952z
	 M7.424,14.737c0.688-0.209,1.25-0.373,1.808-0.553c0.127-0.041,0.236-0.141,0.202-0.301c-0.046-0.219-0.238-0.248-0.394-0.211
	C8.438,13.817,7.781,13.889,7.424,14.737z"/>
<path fill-rule="evenodd" clip-rule="evenodd" fill="#F9F6F8" d="M6.997,16.993c1.767,0.639,3.583,0.66,5.283-0.043
	c2.366-0.977,3.016-3.646,1.599-5.957c-0.213-0.348-0.456-0.679-0.686-1.017c0.386-0.359,0.593-0.071,0.808,0.218
	c0.759,1.022,1.391,2.106,1.805,3.317c0.198,0.58,0.44,1.148,0.713,1.697c0.541,1.086,0.22,1.803-0.967,2.15
	c-1.663,0.486-3.4,0.342-5.086,0.629c-1.054,0.182-2.11,0.07-3.172,0.043c-1.697-0.045-2.516-1.191-2.876-2.471
	c-0.534-1.893,0.668-5.029,2.3-6.143c0.124-0.085,0.259-0.052,0.339,0.097c-0.499,0.888-1.494,1.452-1.667,2.554
	c-0.097,0.258-0.194,0.516-0.291,0.771c-0.277,1.287-0.177,2.494,0.752,3.523l0.083,0.02l0.07-0.049l-0.012,0.02
	c0.309,0.051,0.454-0.375,0.783-0.277C6.92,16.368,6.648,16.756,6.997,16.993z"/>
<path fill-rule="evenodd" clip-rule="evenodd" fill="#7650CC" d="M12.06,7.85c0.117,0.053,0.233,0.106,0.351,0.16
	c-0.194,0.572-0.728,0.75-1.202,0.851c-0.832,0.175-1.694,0.212-2.543,0.307C8.463,9.147,8.249,9.165,8.062,9.1
	C7.715,8.979,7.289,8.867,7.278,8.415c-0.01-0.408,0.308-0.785,0.647-0.829c0.837-0.11,0.779-0.602,0.725-1.212
	C8.584,5.626,8.937,5.037,9.6,4.709c0.65-0.321,1.342-0.526,1.963,0.104c0.423,0.626,0.661,1.265,0.069,1.922
	c-0.489,0.543-1.213,0.682-2.125,1.037C10.557,7.911,11.296,8.199,12.06,7.85z"/>
<path fill-rule="evenodd" clip-rule="evenodd" fill="#D2C0F6" d="M12.06,7.85c-0.764,0.349-1.503,0.062-2.553-0.077
	c0.912-0.355,1.636-0.493,2.125-1.037c0.592-0.658,0.354-1.296-0.069-1.922c1.054,0.218,1.482,1.221,0.937,2.251
	C12.36,7.329,12.078,7.514,12.06,7.85z"/>
<path fill-rule="evenodd" clip-rule="evenodd" fill="#D5C3F7" d="M8.666,9.167c0.849-0.095,1.711-0.132,2.543-0.307
	c0.475-0.1,1.008-0.279,1.202-0.851c0.434-0.296,0.859-0.452,1.139,0.172c0.299,0.667-0.192,0.875-0.673,0.965
	C11.478,9.407,10.071,9.536,8.666,9.167z"/>
<path fill-rule="evenodd" clip-rule="evenodd" fill="#86464C" d="M12.182,12.952c-0.009,0.787-0.686,1.541-1.352,1.477
	c-0.548-0.051-0.98-0.324-0.961-0.98c0.013-0.412,1.29-1.26,1.834-1.201C12.169,12.297,12.169,12.667,12.182,12.952z M10.806,13.913
	c0.417-0.078,0.727-0.293,0.757-0.771c0.014-0.227-0.129-0.293-0.321-0.203c-0.371,0.17-0.932,0.104-1.055,0.576
	C10.125,13.756,10.501,13.889,10.806,13.913z"/>
<path fill-rule="evenodd" clip-rule="evenodd" fill="#854349" d="M5.098,12.838c0.097-0.256,0.194-0.514,0.291-0.771
	c0.55,0.049,0.889,0.482,1.327,0.734c0.26,0.15,0.596,0.281,0.484,0.684C7.078,13.917,6.76,14.19,6.33,14.266
	c-0.365,0.063-0.75,0.09-0.986-0.336C5.151,13.583,5.143,13.211,5.098,12.838z M5.607,12.514c-0.043,0.602-0.099,1.027,0.433,1.182
	c0.203,0.059,0.501-0.029,0.493-0.236C6.513,12.991,6.039,12.899,5.607,12.514z"/>
<path fill-rule="evenodd" clip-rule="evenodd" fill="#86464C" d="M6.997,16.993c-0.349-0.236-0.076-0.625-0.223-0.918
	c-0.33-0.098-0.475,0.328-0.783,0.277c-0.114-0.551,0.252-0.799,0.667-0.943c0.334-0.115,0.589,0.123,0.693,0.424
	C7.506,16.284,7.616,16.76,6.997,16.993z"/>
<path fill-rule="evenodd" clip-rule="evenodd" fill="#8B4F56" d="M10.283,16.948c-0.58-0.24-0.982-0.627-0.574-1.244
	c0.326-0.492,0.812-0.65,1.21,0.008C10.187,15.856,10.21,16.389,10.283,16.948z"/>
<path fill-rule="evenodd" clip-rule="evenodd" fill="#86464C" d="M7.424,14.737c0.357-0.848,1.014-0.92,1.615-1.064
	c0.156-0.037,0.348-0.008,0.394,0.211c0.034,0.16-0.075,0.26-0.202,0.301C8.674,14.364,8.112,14.528,7.424,14.737z"/>
<path fill-rule="evenodd" clip-rule="evenodd" fill="#F9F6F8" d="M10.283,16.948c-0.072-0.559-0.096-1.092,0.637-1.236
	c0.373,0.162,0.521,0.461,0.394,0.828C11.139,17.04,10.701,16.997,10.283,16.948z"/>
<path fill-rule="evenodd" clip-rule="evenodd" fill="#86464C" d="M6.615,11.602c0.182,0.063,0.383,0.207,0.541,0.17
	c0.178-0.043,0.344-0.293,0.512-0.049c0.133,0.193-0.021,0.389-0.16,0.541c-0.168,0.184-0.357,0.172-0.543,0.025
	c-0.211-0.168-0.47-0.309-0.382-0.652L6.615,11.602z"/>
<path fill-rule="evenodd" clip-rule="evenodd" fill="#86464C" d="M6.582,11.637c-0.027-0.037-0.053-0.072-0.08-0.109
	c0.037,0.025,0.075,0.049,0.112,0.074C6.615,11.602,6.582,11.637,6.582,11.637z"/>
<path fill-rule="evenodd" clip-rule="evenodd" fill="#86464C" d="M6.002,16.333l-0.07,0.049l-0.083-0.02
	C5.908,16.391,5.958,16.381,6.002,16.333z"/>
<path fill-rule="evenodd" clip-rule="evenodd" fill="#F1EAEA" d="M10.806,13.913c-0.305-0.023-0.682-0.156-0.619-0.398
	c0.123-0.473,0.684-0.406,1.055-0.576c0.192-0.09,0.335-0.023,0.321,0.203C11.533,13.62,11.223,13.834,10.806,13.913z"/>
<path fill-rule="evenodd" clip-rule="evenodd" fill="#F1EAEA" d="M5.607,12.514c0.431,0.385,0.906,0.477,0.925,0.945
	c0.008,0.207-0.29,0.295-0.493,0.236C5.508,13.542,5.564,13.116,5.607,12.514z"/>
</svg>
