<?xml version="1.0" encoding="utf-8"?>
<!-- Generator: Adobe Illustrator 16.0.0, SVG Export Plug-In . SVG Version: 6.00 Build 0)  -->
<!DOCTYPE svg PUBLIC "-//W3C//DTD SVG 1.1//EN" "http://www.w3.org/Graphics/SVG/1.1/DTD/svg11.dtd">
<svg version="1.1" id="_x33_점_xA0_이미지_1_" xmlns="http://www.w3.org/2000/svg" xmlns:xlink="http://www.w3.org/1999/xlink"
	 x="0px" y="0px" width="20.572px" height="20.572px" viewBox="0 0 20.572 20.572" enable-background="new 0 0 20.572 20.572"
	 xml:space="preserve">
<path fill-rule="evenodd" clip-rule="evenodd" fill="#326C1B" d="M4.213,17.3c-0.633-1.379-1.042-2.777-0.706-4.332
	c0.332-1.537,1.066-2.797,2.291-3.768c0.333-0.265,0.62-0.511,0.56-0.997C6.322,7.919,6.447,7.59,6.669,7.479
	c0.863-0.434,0.954-1.226,1.163-2.041c0.343-1.336,1.906-2.082,3.393-1.744c1.316,0.3,2.101,1.413,1.945,2.819
	c-0.027,0.25-0.088,0.435,0.146,0.623c0.646,0.52,1.133,1.103,0.693,2.017c-0.045,0.093,0.098,0.313,0.201,0.433
	c1.297,1.507,1.861,3.399,2.686,5.15c0.659,1.398,0.501,1.894-0.676,2.943c-0.176,0.011-0.307,0.079-0.345,0.268l-0.033-0.044
	c0,0,0.038,0.04,0.037,0.04c-2.117,0.221-4.236,0.437-6.354,0.663C7.596,18.812,5.734,18.752,4.213,17.3z M11.316,4.736
	c-0.587-0.615-1.213-0.433-1.866-0.114C8.765,4.958,8.456,5.487,8.414,6.247C8.393,6.63,8.752,7.198,8.088,7.374
	C7.525,7.523,7.086,7.777,7.233,8.41c0.143,0.612,0.69,0.679,1.234,0.646c1.405,0.41,2.814,0.257,4.213-0.009
	c0.446-0.084,0.901-0.287,0.657-0.904c-0.243-0.614-0.66-0.566-1.122-0.242c-0.137-0.037-0.274-0.074-0.411-0.111
	c0.044-0.317,0.289-0.52,0.435-0.777C12.829,5.97,12.39,4.919,11.316,4.736z M12.958,9.89c-2.078,0.294-4.152,0.528-6.133-0.465
	C6.75,9.274,6.617,9.238,6.492,9.323c-1.62,1.101-2.832,4.221-2.31,6.12c0.318,1.157,0.901,2.232,2.23,2.403
	c3.082,0.396,6.126-0.062,9.141-0.661c0.974-0.194,1.226-1.078,0.773-2.004c-0.283-0.58-0.547-1.173-0.758-1.782
	c-0.418-1.205-1.051-2.285-1.804-3.304C13.546,9.799,13.334,9.536,12.958,9.89z"/>
<path fill-rule="evenodd" clip-rule="evenodd" fill="#6C9C37" d="M4.213,17.3c1.521,1.452,3.383,1.512,5.314,1.305
	c2.117-0.227,4.236-0.442,6.354-0.663c-1.255,0.854-2.731,0.982-4.16,1.153c-2.438,0.291-4.896,0.324-7.347,0.081
	c-0.563-0.056-1.323,0.002-1.376-0.74C2.947,17.747,3.558,17.418,4.213,17.3z"/>
<path fill-rule="evenodd" clip-rule="evenodd" fill="#679B4F" d="M3.499,5.523C3.479,5.884,3.292,6.125,2.952,6.16
	C2.556,6.202,2.3,5.975,2.273,5.576C2.249,5.22,2.47,4.986,2.807,4.948C3.207,4.902,3.428,5.144,3.499,5.523z"/>
<path fill-rule="evenodd" clip-rule="evenodd" fill="#679B4F" d="M5.318,4.934c0.36,0.021,0.599,0.209,0.634,0.548
	C5.994,5.878,5.77,6.136,5.37,6.163C5.015,6.187,4.782,5.964,4.744,5.627C4.698,5.228,4.938,5.004,5.318,4.934z"/>
<path fill-rule="evenodd" clip-rule="evenodd" fill="#679B4F" d="M15.849,5.893c-0.044,0.436-0.243,0.689-0.647,0.681
	c-0.35-0.007-0.575-0.232-0.584-0.58c-0.01-0.4,0.227-0.638,0.628-0.638C15.607,5.356,15.765,5.615,15.849,5.893z"/>
<path fill-rule="evenodd" clip-rule="evenodd" fill="#679B4F" d="M18.311,5.988c-0.065,0.379-0.281,0.624-0.684,0.584
	c-0.34-0.034-0.561-0.267-0.542-0.621c0.021-0.398,0.271-0.629,0.671-0.593C18.099,5.39,18.284,5.629,18.311,5.988z"/>
<path fill-rule="evenodd" clip-rule="evenodd" fill="#6C9C37" d="M15.876,17.946c0.038-0.188,0.169-0.257,0.345-0.268
	C16.164,17.84,16.046,17.927,15.876,17.946z"/>
<path fill-rule="evenodd" clip-rule="evenodd" fill="#E8FB9C" d="M6.825,9.424c1.981,0.993,4.055,0.759,6.133,0.465
	c0.23,0.337,0.476,0.667,0.689,1.015c1.416,2.315,0.768,4.979-1.6,5.955c-1.7,0.701-3.516,0.682-5.283,0.044
	c0.625-0.231,0.507-0.706,0.358-1.165c-0.088-0.271-0.328-0.503-0.603-0.434c-0.458,0.116-0.881,0.345-0.76,0.958l0.012-0.022
	c-0.039,0.068-0.09,0.079-0.154,0.032c-0.809-0.984-1.15-2.062-0.664-3.306c-0.089,0.774,0.109,1.417,1.009,1.391
	c0.701-0.021,0.94-0.574,0.878-1.232c-0.035-0.373-0.277-0.631-0.609-0.746c-0.597-0.208-0.915,0.266-1.285,0.594
	c-0.06-0.379,0.055-0.725,0.169-1.081C5.439,10.893,6.308,10.281,6.825,9.424z M10.052,16.857c0.422,0.059,0.857,0.091,1.033-0.406
	c0.13-0.367-0.019-0.669-0.396-0.828c-0.396-0.664-0.883-0.498-1.208-0.011C9.07,16.229,9.478,16.615,10.052,16.857z M9.679,13.101
	c-0.048,0.991,0.391,1.251,0.939,1.29c0.7,0.049,0.98-0.494,1.008-1.054c0.027-0.564-0.342-0.998-0.953-0.98
	C10.039,12.375,9.701,12.784,9.679,13.101z"/>
<path fill-rule="evenodd" clip-rule="evenodd" fill="#F7F9F5" d="M6.825,9.424c-0.517,0.857-1.386,1.469-1.707,2.468
	c-0.115,0.356-0.229,0.702-0.169,1.081l0.006-0.006c-0.487,1.244-0.146,2.321,0.664,3.306l0.084,0.016l0.069-0.048l-0.012,0.022
	c0.313,0.055,0.454-0.379,0.781-0.283c0.151,0.296-0.133,0.688,0.224,0.924c1.767,0.638,3.583,0.657,5.283-0.044
	c2.367-0.977,3.016-3.64,1.6-5.955c-0.214-0.349-0.459-0.678-0.689-1.015c0.376-0.354,0.588-0.091,0.807,0.205
	c0.753,1.019,1.386,2.099,1.804,3.304c0.211,0.609,0.475,1.202,0.758,1.782c0.452,0.926,0.2,1.81-0.773,2.004
	c-3.015,0.6-6.059,1.058-9.141,0.661c-1.33-0.171-1.913-1.246-2.23-2.403c-0.522-1.899,0.69-5.02,2.31-6.12
	C6.617,9.238,6.75,9.274,6.825,9.424z"/>
<path fill-rule="evenodd" clip-rule="evenodd" fill="#699A2F" d="M11.804,7.791c0.137,0.037,0.274,0.074,0.411,0.111
	C12.042,8.375,11.62,8.562,11.2,8.694c-0.886,0.279-1.815,0.291-2.733,0.363C7.923,9.089,7.375,9.022,7.233,8.41
	C7.086,7.777,7.525,7.523,8.088,7.374C8.752,7.198,8.393,6.63,8.414,6.247c0.042-0.76,0.351-1.289,1.036-1.625
	c0.652-0.319,1.279-0.501,1.866,0.114c0.479,0.628,0.68,1.278,0.064,1.928c-0.488,0.517-1.162,0.717-1.833,0.948
	C10.302,7.867,11.035,8.07,11.804,7.791z"/>
<path fill-rule="evenodd" clip-rule="evenodd" fill="#D3F56A" d="M11.804,7.791c-0.77,0.28-1.502,0.076-2.257-0.178
	c0.671-0.231,1.345-0.431,1.833-0.948c0.615-0.65,0.414-1.3-0.064-1.928c1.074,0.183,1.513,1.233,0.923,2.277
	C12.093,7.271,11.848,7.474,11.804,7.791z"/>
<path fill-rule="evenodd" clip-rule="evenodd" fill="#D6F76C" d="M8.467,9.057c0.918-0.072,1.847-0.084,2.733-0.363
	c0.42-0.132,0.842-0.319,1.016-0.792c0.462-0.324,0.879-0.372,1.122,0.242c0.244,0.617-0.211,0.819-0.657,0.904
	C11.281,9.314,9.872,9.467,8.467,9.057z"/>
<path fill-rule="evenodd" clip-rule="evenodd" fill="#37701D" d="M9.679,13.101c0.022-0.317,0.36-0.726,0.994-0.744
	c0.611-0.018,0.98,0.416,0.953,0.98c-0.027,0.56-0.308,1.103-1.008,1.054C10.07,14.352,9.63,14.092,9.679,13.101z M11.094,13.352
	c-0.117-0.235-0.32-0.384-0.623-0.374c-0.259,0.009-0.356,0.184-0.33,0.415c0.03,0.268,0.204,0.445,0.468,0.457
	C10.889,13.863,11.019,13.658,11.094,13.352z"/>
<path fill-rule="evenodd" clip-rule="evenodd" fill="#38711F" d="M4.949,12.973c0.37-0.328,0.688-0.802,1.285-0.594
	c0.332,0.115,0.574,0.373,0.609,0.746c0.062,0.658-0.178,1.212-0.878,1.232c-0.9,0.026-1.098-0.616-1.009-1.391L4.949,12.973z
	 M5.874,13.787c0.274-0.018,0.418-0.199,0.411-0.462c-0.008-0.265-0.188-0.455-0.453-0.46C5.58,12.86,5.52,13.094,5.5,13.296
	C5.474,13.551,5.527,13.776,5.874,13.787z"/>
<path fill-rule="evenodd" clip-rule="evenodd" fill="#3E7623" d="M6.766,16.904c-0.356-0.236-0.073-0.628-0.224-0.924
	c-0.328-0.096-0.469,0.338-0.781,0.283c-0.121-0.613,0.303-0.842,0.76-0.958c0.275-0.069,0.514,0.162,0.603,0.434
	C7.272,16.198,7.39,16.672,6.766,16.904z"/>
<path fill-rule="evenodd" clip-rule="evenodd" fill="#467C2B" d="M10.052,16.857c-0.574-0.242-0.982-0.628-0.57-1.245
	c0.325-0.487,0.812-0.653,1.208,0.011C9.95,15.762,9.974,16.295,10.052,16.857z"/>
<path fill-rule="evenodd" clip-rule="evenodd" fill="#F8FAF5" d="M10.052,16.857c-0.078-0.562-0.102-1.095,0.638-1.234
	c0.377,0.159,0.525,0.461,0.396,0.828C10.91,16.948,10.474,16.916,10.052,16.857z"/>
<path fill-rule="evenodd" clip-rule="evenodd" fill="#3E7623" d="M5.772,16.241l-0.069,0.048l-0.084-0.016
	C5.682,16.32,5.733,16.309,5.772,16.241z"/>
<path fill-rule="evenodd" clip-rule="evenodd" fill="#E1E9DE" d="M11.094,13.352c-0.075,0.306-0.205,0.511-0.485,0.498
	c-0.264-0.012-0.438-0.189-0.468-0.457c-0.026-0.231,0.071-0.406,0.33-0.415C10.774,12.968,10.977,13.117,11.094,13.352z"/>
<path fill-rule="evenodd" clip-rule="evenodd" fill="#ECF1EA" d="M5.874,13.787c-0.347-0.011-0.4-0.235-0.375-0.49
	c0.021-0.202,0.081-0.437,0.332-0.432c0.265,0.005,0.445,0.195,0.453,0.46C6.292,13.587,6.148,13.769,5.874,13.787z"/>
</svg>
