<?xml version="1.0" encoding="utf-8"?>
<!-- Generator: Adobe Illustrator 16.0.0, SVG Export Plug-In . SVG Version: 6.00 Build 0)  -->
<!DOCTYPE svg PUBLIC "-//W3C//DTD SVG 1.1//EN" "http://www.w3.org/Graphics/SVG/1.1/DTD/svg11.dtd">
<svg version="1.1" id="_x35_점_xA0_이미지_1_" xmlns="http://www.w3.org/2000/svg" xmlns:xlink="http://www.w3.org/1999/xlink"
	 x="0px" y="0px" width="20.572px" height="20.572px" viewBox="0 0 20.572 20.572" enable-background="new 0 0 20.572 20.572"
	 xml:space="preserve">
<path fill-rule="evenodd" clip-rule="evenodd" fill="#C96D4D" d="M4.244,17.263c-1.02-1.776-1.107-3.61-0.371-5.51
	c0.25-0.646,0.583-1.221,1.063-1.73C5.563,9.357,6.06,8.579,6.573,7.844c0.682-0.976,1.022-2.022,1.544-3.022
	c0.538-1.029,2.18-1.474,3.373-1.059c1.162,0.404,1.813,1.44,1.703,2.715c-0.009,0.101-0.086,0.273-0.059,0.289
	c1.254,0.741,0.642,2.27,1.38,3.236c1.24,1.622,1.857,3.563,2.636,5.412c0.416,0.989-0.207,1.685-0.938,2.271
	c-0.163,0.017-0.3,0.073-0.364,0.239l0.019-0.007c-1.688,0.176-3.373,0.404-5.066,0.515C8.529,18.581,6.159,19.161,4.244,17.263z
	 M8.461,9.075c1.41,0.369,2.821,0.253,4.223-0.028c0.453-0.091,0.896-0.305,0.643-0.916c-0.257-0.617-0.688-0.523-1.144-0.226
	c-0.118-0.052-0.236-0.104-0.355-0.157c0.047-0.318,0.302-0.518,0.439-0.781c0.565-1.08,0.021-2.202-1.146-2.413
	C9.728,4.013,8.409,4.832,8.428,6.268C8.436,6.872,8.518,7.386,7.681,7.51C7.354,7.558,7.015,7.93,7.043,8.349
	c0.03,0.452,0.456,0.557,0.809,0.669C8.042,9.078,8.258,9.058,8.461,9.075z M6.828,9.428c-0.084-0.14-0.232-0.192-0.341-0.096
	c-1.634,1.458-2.854,3.784-2.29,6.137c0.305,1.273,1.141,2.423,2.866,2.47c1.06,0.028,2.115,0.143,3.168-0.04
	c1.683-0.292,3.418-0.142,5.08-0.629c1.19-0.349,1.521-1.063,0.984-2.145c-0.271-0.549-0.518-1.115-0.717-1.694
	c-0.417-1.21-1.04-2.299-1.803-3.317c-0.216-0.288-0.42-0.575-0.811-0.229C10.883,10.217,8.81,10.438,6.828,9.428z"/>
<path fill-rule="evenodd" clip-rule="evenodd" fill="#FCC436" d="M4.244,17.263c1.915,1.897,4.285,1.317,6.556,1.169
	c1.693-0.11,3.378-0.339,5.066-0.515c-1.164,0.896-2.594,0.969-3.946,1.157c-2.476,0.345-4.977,0.347-7.47,0.109
	c-0.587-0.056-1.414,0.033-1.458-0.776C2.954,17.735,3.597,17.402,4.244,17.263z"/>
<path fill-rule="evenodd" clip-rule="evenodd" fill="#FEE294" d="M1.567,1.323C1.766,1.5,2.062,1.778,2.371,2.039
	c1.196,1.01,2.402,2.01,3.592,3.027c0.214,0.184,0.6,0.408,0.313,0.736C6.017,6.099,5.785,5.714,5.607,5.568
	c-1.444-1.192-2.87-2.406-4.302-3.612c-0.163-0.137-0.31-0.289-0.218-0.52C1.142,1.301,1.266,1.239,1.567,1.323z"/>
<path fill-rule="evenodd" clip-rule="evenodd" fill="#FEE294" d="M19.748,1.625c-0.09,0.111-0.159,0.229-0.259,0.313
	c-1.456,1.23-2.913,2.46-4.38,3.677c-0.162,0.134-0.36,0.443-0.597,0.208c-0.276-0.274,0.009-0.501,0.208-0.672
	c1.445-1.244,2.897-2.479,4.351-3.714c0.157-0.133,0.34-0.258,0.544-0.095C19.68,1.395,19.697,1.511,19.748,1.625z"/>
<path fill-rule="evenodd" clip-rule="evenodd" fill="#FEE296" d="M5.474,7.076c-0.078,0.4-0.362,0.405-0.548,0.274
	c-1.11-0.777-2.199-1.583-3.29-2.387C1.518,4.877,1.483,4.73,1.601,4.614C1.738,4.479,1.936,4.481,2.074,4.57
	C2.5,4.846,2.907,5.152,3.321,5.445C3.875,5.837,4.434,6.221,4.98,6.622C5.166,6.758,5.322,6.935,5.474,7.076z"/>
<path fill-rule="evenodd" clip-rule="evenodd" fill="#FEE296" d="M15.648,7.446c-0.105-0.07-0.27-0.121-0.295-0.212
	c-0.028-0.099,0.034-0.284,0.12-0.347c1.064-0.782,2.135-1.557,3.219-2.312c0.157-0.109,0.416-0.121,0.527,0.109
	C19.311,4.875,19.134,4.993,19,5.092c-0.983,0.722-1.969,1.441-2.957,2.157C15.937,7.325,15.806,7.368,15.648,7.446z"/>
<path fill-rule="evenodd" clip-rule="evenodd" fill="#FEE295" d="M0.705,6.004C0.82,6.064,0.912,6.108,0.999,6.161
	c1.049,0.624,2.099,1.249,3.146,1.876c0.236,0.142,0.526,0.316,0.322,0.627C4.28,8.95,4.029,8.688,3.849,8.583
	c-0.998-0.578-1.985-1.175-2.973-1.77C0.631,6.666,0.463,6.455,0.493,6.155C0.498,6.097,0.635,6.051,0.705,6.004z"/>
<path fill-rule="evenodd" clip-rule="evenodd" fill="#FEE295" d="M20.264,5.888c0.067,0.689-0.266,0.882-0.582,1.071
	c-0.931,0.558-1.864,1.113-2.807,1.652c-0.177,0.102-0.42,0.349-0.596,0.005c-0.112-0.22,0.05-0.394,0.231-0.502
	C17.723,7.39,18.939,6.673,20.264,5.888z"/>
<path fill-rule="evenodd" clip-rule="evenodd" fill="#FEE296" d="M4.994,2.294c0.168,0.089,0.334,0.146,0.462,0.251
	C6.011,2.998,6.558,3.46,7.101,3.928c0.18,0.156,0.409,0.36,0.248,0.604C7.142,4.844,6.93,4.565,6.76,4.432
	C6.17,3.969,5.588,3.496,5.01,3.018C4.853,2.888,4.695,2.73,4.779,2.497C4.808,2.419,4.912,2.369,4.994,2.294z"/>
<path fill-rule="evenodd" clip-rule="evenodd" fill="#FEE296" d="M13.617,4.66c-0.047-0.031-0.162-0.065-0.196-0.138
	c-0.081-0.172-0.015-0.341,0.124-0.458c0.651-0.549,1.304-1.096,1.967-1.631c0.125-0.1,0.309-0.197,0.447-0.01
	C16.01,2.494,16.016,2.618,16,2.709C15.968,2.902,13.849,4.653,13.617,4.66z"/>
<path fill-rule="evenodd" clip-rule="evenodd" fill="#FEE39A" d="M4.023,10.211c-0.046,0.238-0.216,0.313-0.382,0.259
	C2.83,10.209,2.025,9.929,1.223,9.643C1.088,9.595,1.033,9.455,1.066,9.303c0.036-0.162,0.178-0.25,0.3-0.209
	c0.84,0.28,1.674,0.579,2.505,0.886C3.945,10.007,3.979,10.141,4.023,10.211z"/>
<path fill-rule="evenodd" clip-rule="evenodd" fill="#FEE39A" d="M17.237,10.482c-0.229-0.012-0.425,0.015-0.464-0.213
	c-0.035-0.203,0.115-0.321,0.274-0.379c0.738-0.269,1.479-0.528,2.224-0.779c0.166-0.056,0.35-0.046,0.427,0.158
	c0.074,0.195-0.023,0.342-0.199,0.406C18.73,9.957,17.957,10.226,17.237,10.482z"/>
<path fill-rule="evenodd" clip-rule="evenodd" fill="#FCC436" d="M15.847,17.924c0.064-0.166,0.201-0.223,0.364-0.239
	C16.147,17.852,16.024,17.929,15.847,17.924z"/>
<path fill-rule="evenodd" clip-rule="evenodd" fill="#FDEDA5" d="M6.828,9.428c1.982,1.01,4.056,0.79,6.137,0.457
	c0.229,0.339,0.47,0.67,0.684,1.018c1.351,2.199,0.822,4.78-1.323,5.814c-1.781,0.858-3.681,0.829-5.559,0.191
	c0.63-0.231,0.499-0.717,0.353-1.165c-0.098-0.3-0.357-0.544-0.691-0.44c-0.437,0.136-0.762,0.421-0.667,0.961l0.01-0.015
	c-0.054,0.021-0.11,0.025-0.167,0.016c-0.708-0.661-0.809-1.547-0.864-2.433C4.625,11.986,5.781,10.73,6.828,9.428z M10.688,15.622
	c-0.377-0.625-0.866-0.517-1.196-0.043c-0.437,0.626-0.063,1.043,0.561,1.282c0.416,0.04,0.857,0.091,1.03-0.411
	C11.209,16.081,11.06,15.784,10.688,15.622z M6.082,13.154c-0.44,0.08-0.914,0.181-1.089,0.705
	c-0.058,0.175,0.157,0.375,0.294,0.287c0.439-0.283,1.139-0.167,1.351-0.722C6.749,13.132,6.333,13.185,6.082,13.154z
	 M10.557,13.176c-0.264,0.007-0.565,0.1-0.454,0.302c0.258,0.468,0.873,0.393,1.287,0.661c0.136,0.087,0.346-0.1,0.278-0.293
	C11.48,13.305,10.951,13.308,10.557,13.176z"/>
<path fill-rule="evenodd" clip-rule="evenodd" fill="#FCF9F7" d="M6.828,9.428c-1.046,1.302-2.203,2.558-2.088,4.404
	c0.056,0.886,0.156,1.771,0.864,2.433c0.056-0.006,0.111-0.011,0.167-0.016l-0.01,0.015c0.303,0.047,0.453-0.367,0.774-0.268
	c0.153,0.291-0.102,0.676,0.231,0.912c1.877,0.638,3.777,0.667,5.559-0.191c2.146-1.034,2.674-3.615,1.323-5.814
	c-0.214-0.348-0.455-0.678-0.684-1.018c0.391-0.346,0.595-0.059,0.811,0.229c0.763,1.019,1.386,2.107,1.803,3.317
	c0.199,0.579,0.445,1.146,0.717,1.694c0.536,1.082,0.206,1.796-0.984,2.145c-1.661,0.487-3.396,0.337-5.08,0.629
	c-1.053,0.183-2.108,0.068-3.168,0.04c-1.725-0.047-2.561-1.196-2.866-2.47c-0.564-2.354,0.655-4.68,2.29-6.137
	C6.595,9.235,6.744,9.288,6.828,9.428z"/>
<path fill-rule="evenodd" clip-rule="evenodd" fill="#FDC42F" d="M11.828,7.749c0.119,0.052,0.237,0.104,0.355,0.156
	c-0.179,0.58-0.712,0.763-1.185,0.862c-0.83,0.176-1.689,0.212-2.537,0.308C8.258,9.058,8.042,9.078,7.852,9.018
	C7.499,8.906,7.073,8.801,7.043,8.349C7.015,7.93,7.354,7.558,7.681,7.51c0.836-0.124,0.755-0.638,0.747-1.242
	c-0.02-1.436,1.299-2.255,2.692-1.713c0.549,0.583,0.934,1.215,0.368,1.984c-0.468,0.636-1.248,0.785-1.94,1.095
	C10.321,7.835,11.061,8.104,11.828,7.749z"/>
<path fill-rule="evenodd" clip-rule="evenodd" fill="#FCECC7" d="M11.828,7.749c-0.767,0.355-1.507,0.086-2.279-0.115
	c0.692-0.31,1.472-0.458,1.94-1.095c0.565-0.769,0.181-1.401-0.368-1.984c1.168,0.211,1.712,1.333,1.146,2.413
	C12.129,7.23,11.875,7.431,11.828,7.749z"/>
<path fill-rule="evenodd" clip-rule="evenodd" fill="#FCEECE" d="M8.461,9.075c0.848-0.095,1.708-0.131,2.537-0.308
	c0.473-0.1,1.006-0.282,1.185-0.862c0.455-0.297,0.887-0.391,1.144,0.227c0.254,0.61-0.189,0.825-0.643,0.916
	C11.283,9.328,9.872,9.443,8.461,9.075z"/>
<path fill-rule="evenodd" clip-rule="evenodd" fill="#CC7553" d="M6.766,16.908c-0.333-0.236-0.078-0.621-0.231-0.912
	c-0.321-0.1-0.471,0.314-0.774,0.268c-0.095-0.54,0.23-0.825,0.667-0.961c0.334-0.104,0.593,0.141,0.691,0.44
	C7.265,16.191,7.396,16.676,6.766,16.908z"/>
<path fill-rule="evenodd" clip-rule="evenodd" fill="#CE7A59" d="M10.053,16.861c-0.623-0.239-0.997-0.656-0.561-1.282
	c0.33-0.474,0.819-0.582,1.196,0.043C9.958,15.77,10.007,16.316,10.053,16.861z"/>
<path fill-rule="evenodd" clip-rule="evenodd" fill="#CA6F4C" d="M6.082,13.154c0.251,0.031,0.667-0.021,0.556,0.271
	c-0.212,0.555-0.912,0.438-1.351,0.722c-0.137,0.088-0.352-0.112-0.294-0.287C5.168,13.334,5.642,13.234,6.082,13.154z"/>
<path fill-rule="evenodd" clip-rule="evenodd" fill="#CC724F" d="M10.557,13.176c0.394,0.132,0.923,0.129,1.111,0.67
	c0.067,0.193-0.143,0.38-0.278,0.293c-0.414-0.269-1.028-0.193-1.287-0.661C9.992,13.276,10.293,13.183,10.557,13.176z"/>
<path fill-rule="evenodd" clip-rule="evenodd" fill="#FCF9F7" d="M10.053,16.861c-0.045-0.545-0.094-1.091,0.635-1.239
	c0.372,0.162,0.521,0.459,0.395,0.828C10.91,16.952,10.468,16.901,10.053,16.861z"/>
<path fill-rule="evenodd" clip-rule="evenodd" fill="#CC7553" d="M5.771,16.249c-0.056,0.005-0.111,0.01-0.167,0.016
	C5.661,16.274,5.717,16.269,5.771,16.249z"/>
</svg>
