<?xml version="1.0" encoding="utf-8"?>
<!-- Generator: Adobe Illustrator 16.0.0, SVG Export Plug-In . SVG Version: 6.00 Build 0)  -->
<!DOCTYPE svg PUBLIC "-//W3C//DTD SVG 1.1//EN" "http://www.w3.org/Graphics/SVG/1.1/DTD/svg11.dtd">
<svg version="1.1" id="_x32_점_xA0_이미지_1_" xmlns="http://www.w3.org/2000/svg" xmlns:xlink="http://www.w3.org/1999/xlink"
	 x="0px" y="0px" width="20.572px" height="20.572px" viewBox="0 0 20.572 20.572" enable-background="new 0 0 20.572 20.572"
	 xml:space="preserve">
<path fill-rule="evenodd" clip-rule="evenodd" fill="#684C7D" d="M13.984,7.866c0.162,2.507,2.012,4.29,2.82,6.531
	c0.644,1.786,0.643,2.289-0.855,3.499c-1.719,0.184-3.435,0.422-5.158,0.536c-2.265,0.15-4.633,0.736-6.537-1.175
	c-0.98-1.691-1.09-3.442-0.464-5.291c0.353-1.043,0.957-1.896,1.792-2.546C6.22,8.925,6.463,8.366,6.383,7.607L6.364,7.615
	c0.192,0.045,0.216-0.08,0.225-0.222L6.581,7.412C7.34,7.125,7.643,6.609,7.762,5.77c0.21-1.49,1.6-2.316,3.221-2.104
	c1.419,0.186,2.362,1.308,2.176,2.808c-0.098,0.791,0.715,0.849,0.834,1.4L13.984,7.866z M8.459,9.077
	c1.413,0.362,2.827,0.253,4.231-0.032c0.454-0.092,0.894-0.31,0.634-0.92c-0.265-0.621-0.695-0.514-1.147-0.212
	c-0.113-0.055-0.228-0.11-0.341-0.166c0.033-0.324,0.295-0.521,0.432-0.784c0.535-1.029,0.115-2.013-0.93-2.236
	c-0.623-0.638-1.32-0.433-1.971-0.107C8.71,4.948,8.32,5.508,8.417,6.28c0.078,0.623,0.08,1.1-0.738,1.226
	C7.347,7.556,7.018,7.93,7.046,8.346c0.029,0.449,0.452,0.56,0.805,0.671C8.041,9.078,8.256,9.06,8.459,9.077z M12.966,9.888
	c-2.084,0.318-4.161,0.544-6.144-0.467C6.739,9.275,6.604,9.248,6.481,9.333c-1.597,1.099-2.788,4.123-2.316,6.042
	c0.298,1.215,1.102,2.526,2.901,2.565c1.06,0.022,2.117,0.139,3.169-0.043c1.684-0.29,3.42-0.142,5.081-0.629
	c1.19-0.35,1.515-1.061,0.976-2.147c-0.272-0.548-0.517-1.115-0.715-1.694c-0.415-1.211-1.044-2.297-1.803-3.317
	C13.56,9.824,13.355,9.529,12.966,9.888z"/>
<path fill-rule="evenodd" clip-rule="evenodd" fill="#4366EC" d="M4.253,17.257c1.904,1.911,4.272,1.325,6.537,1.175
	c1.724-0.114,3.439-0.353,5.158-0.536c-1.276,0.898-2.792,1.022-4.256,1.201c-2.406,0.293-4.83,0.321-7.249,0.078
	c-0.56-0.057-1.319,0.046-1.423-0.683C2.909,17.708,3.611,17.445,4.253,17.257z"/>
<path fill-rule="evenodd" clip-rule="evenodd" fill="#301EA6" d="M2.11,6.725c0,1.439,0.005,2.878-0.005,4.318
	c-0.001,0.25,0.075,0.639-0.333,0.61c-0.264-0.02-0.285-0.334-0.279-0.587c0.058-2.845,0.11-5.689,0.169-8.534
	c0.005-0.267-0.011-0.639,0.364-0.599c0.381,0.041,0.245,0.43,0.247,0.679c0.011,1.371,0.005,2.742,0.005,4.113
	C2.223,6.725,2.167,6.725,2.11,6.725z"/>
<path fill-rule="evenodd" clip-rule="evenodd" fill="#301EA6" d="M18.913,7.301c0,1.371,0.163,2.741,0.163,4.112
	c0,0.271,0.044,0.64-0.313,0.644c-0.396,0.006-0.291-0.396-0.297-0.643c-0.064-2.81-0.12-5.62-0.168-8.431
	c-0.005-0.251-0.107-0.648,0.283-0.648c0.343,0,0.33,0.374,0.331,0.646C18.914,4.422,18.913,5.861,18.913,7.301
	C18.967,7.301,18.858,7.301,18.913,7.301z"/>
<path fill-rule="evenodd" clip-rule="evenodd" fill="#2A18A3" d="M3.655,6.176c0,1.469,0.008,2.938-0.007,4.407
	c-0.002,0.274,0.102,0.72-0.358,0.69c-0.378-0.024-0.24-0.43-0.239-0.672c0.005-2.938,0.021-5.875,0.044-8.813
	c0.002-0.28-0.1-0.719,0.354-0.694c0.37,0.021,0.251,0.424,0.253,0.675c0.01,1.469,0.005,2.938,0.005,4.407
	C3.69,6.176,3.673,6.176,3.655,6.176z"/>
<path fill-rule="evenodd" clip-rule="evenodd" fill="#2A18A3" d="M17.528,6.615c0,1.469,0.006,2.938-0.007,4.407
	c-0.003,0.242,0.139,0.631-0.248,0.668c-0.394,0.038-0.348-0.347-0.35-0.601c-0.025-3.007-0.042-6.013-0.057-9.019
	c-0.001-0.228-0.059-0.56,0.263-0.573c0.389-0.016,0.347,0.347,0.348,0.608c0.006,1.503,0.003,3.006,0.003,4.509
	C17.496,6.615,17.511,6.615,17.528,6.615z"/>
<path fill-rule="evenodd" clip-rule="evenodd" fill="#3C2BAB" d="M5.308,5.219c0,1.06,0.001,2.119,0,3.179
	c0,0.243-0.013,0.531-0.319,0.539c-0.339,0.009-0.31-0.301-0.312-0.535C4.658,6.214,4.641,4.027,4.633,1.84
	c0-0.227-0.013-0.544,0.312-0.545c0.321-0.001,0.313,0.307,0.315,0.54c0.006,1.128,0.003,2.256,0.003,3.384
	C5.277,5.219,5.293,5.219,5.308,5.219z"/>
<path fill-rule="evenodd" clip-rule="evenodd" fill="#3C2BAB" d="M15.307,5.452c0-1.025-0.005-2.051,0.003-3.076
	c0.002-0.26-0.063-0.637,0.292-0.663c0.388-0.028,0.339,0.362,0.339,0.614c-0.007,2.153-0.025,4.307-0.045,6.46
	c-0.002,0.23,0.045,0.555-0.286,0.556c-0.379,0.001-0.345-0.344-0.346-0.61c-0.004-1.094-0.002-2.188-0.002-3.281
	C15.278,5.452,15.292,5.452,15.307,5.452z"/>
<path fill-rule="evenodd" clip-rule="evenodd" fill="#3F2EAC" d="M13.984,7.866l0.009,0.007c0.29-1.107,0.034-2.236,0.135-3.348
	c0.042-0.455-0.314-1.259,0.331-1.282c0.526-0.019,0.263,0.786,0.284,1.221c0.046,0.92,0,1.844,0.029,2.765
	C14.791,7.831,14.563,8.045,13.984,7.866z"/>
<path fill-rule="evenodd" clip-rule="evenodd" fill="#3F2EAC" d="M6.446,7.664C6.063,7.607,5.853,7.436,5.862,6.998
	C5.888,5.806,5.874,4.613,5.883,3.42C5.885,3.155,5.855,2.803,6.25,2.839C6.553,2.867,6.508,3.19,6.52,3.42
	c0.068,1.349-0.168,2.707,0.124,4.048L6.652,7.45C6.424,7.369,6.428,7.523,6.427,7.672L6.446,7.664z"/>
<path fill-rule="evenodd" clip-rule="evenodd" fill="#C2DCFC" d="M6.822,9.421c1.983,1.011,4.06,0.785,6.144,0.467
	c0.229,0.339,0.469,0.669,0.684,1.017c1.349,2.183,0.817,4.776-1.323,5.809c-1.777,0.857-3.677,0.835-5.552,0.192
	c0.584-0.212,0.496-0.672,0.373-1.106c-0.089-0.313-0.335-0.579-0.678-0.493c-0.453,0.113-0.789,0.401-0.737,0.948
	c-0.656-0.268-0.73-0.86-0.81-1.45c0.545,0.063,0.944-0.041,0.823-0.729c0.345-0.298,0.941-0.673,0.538-1.088
	c-0.361-0.371-0.634,0.362-0.973,0.561c-0.105,0.062-0.116,0.287-0.17,0.438c-0.135,0.067-0.27,0.135-0.405,0.202
	c-0.07-0.792,0.122-1.532,0.374-2.28C5.445,10.903,6.32,10.295,6.822,9.421z M11.097,13.958c0.175,0.429,0.502,0.514,0.905,0.382
	c0.168-0.054,0.308-0.19,0.271-0.376c-0.08-0.396-0.404-0.387-0.715-0.381c-0.382-0.39-0.844-0.637-1.375-0.748
	c-0.018-0.003-0.111,0.174-0.102,0.259C10.146,13.695,10.72,13.713,11.097,13.958z M10.05,16.86
	c0.406,0.022,0.853,0.102,1.024-0.409c0.124-0.368-0.02-0.662-0.388-0.825c-0.367-0.646-0.856-0.507-1.185-0.052
	C9.051,16.2,9.44,16.61,10.05,16.86z"/>
<path fill-rule="evenodd" clip-rule="evenodd" fill="#F8F8FA" d="M6.822,9.421c-0.502,0.875-1.377,1.482-1.714,2.486
	c-0.251,0.748-0.443,1.488-0.374,2.28c0.004,0.224-0.042,0.463,0.188,0.617c0.08,0.59,0.154,1.183,0.81,1.45
	c0.263-0.1,0.526-0.199,0.783-0.296c0.182,0.317-0.1,0.716,0.26,0.947c1.875,0.643,3.775,0.665,5.552-0.192
	c2.141-1.032,2.672-3.626,1.323-5.809c-0.215-0.348-0.455-0.678-0.684-1.017c0.389-0.358,0.594-0.064,0.808,0.223
	c0.759,1.02,1.388,2.106,1.803,3.317c0.198,0.579,0.442,1.146,0.715,1.694c0.539,1.087,0.215,1.798-0.976,2.147
	c-1.661,0.487-3.397,0.339-5.081,0.629c-1.053,0.182-2.109,0.065-3.169,0.043c-1.799-0.039-2.603-1.351-2.901-2.565
	c-0.472-1.92,0.72-4.943,2.316-6.042C6.604,9.248,6.739,9.275,6.822,9.421z"/>
<path fill-rule="evenodd" clip-rule="evenodd" fill="#3B61EE" d="M11.835,7.748c0.113,0.055,0.228,0.11,0.341,0.165
	c-0.181,0.578-0.715,0.756-1.186,0.856c-0.829,0.176-1.686,0.213-2.532,0.308C8.256,9.06,8.041,9.078,7.851,9.018
	C7.498,8.906,7.075,8.795,7.046,8.346C7.018,7.93,7.347,7.556,7.679,7.505C8.497,7.38,8.495,6.903,8.417,6.28
	C8.32,5.508,8.71,4.948,9.366,4.621c0.651-0.326,1.348-0.531,1.97,0.107c0.422,0.628,0.659,1.268,0.063,1.923
	c-0.49,0.538-1.207,0.687-2.131,1.042C10.333,7.811,11.073,8.127,11.835,7.748z"/>
<path fill-rule="evenodd" clip-rule="evenodd" fill="#AFBFFA" d="M11.835,7.748c-0.763,0.379-1.503,0.063-2.568-0.056
	c0.924-0.354,1.641-0.503,2.131-1.042c0.597-0.655,0.359-1.295-0.063-1.923c1.046,0.224,1.466,1.208,0.931,2.236
	C12.13,7.227,11.869,7.424,11.835,7.748z"/>
<path fill-rule="evenodd" clip-rule="evenodd" fill="#B3C1F9" d="M8.459,9.077c0.846-0.095,1.703-0.132,2.532-0.308
	c0.471-0.1,1.005-0.278,1.186-0.856c0.452-0.301,0.883-0.409,1.147,0.212c0.26,0.61-0.18,0.828-0.634,0.92
	C11.286,9.33,9.872,9.439,8.459,9.077z"/>
<path fill-rule="evenodd" clip-rule="evenodd" fill="#6F5684" d="M6.774,16.906c-0.359-0.231-0.078-0.63-0.26-0.947
	c-0.257,0.097-0.52,0.196-0.783,0.296c-0.052-0.547,0.284-0.835,0.737-0.948c0.343-0.086,0.589,0.181,0.678,0.493
	C7.27,16.234,7.359,16.694,6.774,16.906z"/>
<path fill-rule="evenodd" clip-rule="evenodd" fill="#745D89" d="M10.05,16.86c-0.61-0.25-1-0.66-0.548-1.286
	c0.328-0.455,0.817-0.595,1.185,0.052C9.943,15.762,10.012,16.319,10.05,16.86z"/>
<path fill-rule="evenodd" clip-rule="evenodd" fill="#F8F8FA" d="M10.05,16.86c-0.039-0.541-0.107-1.098,0.637-1.234
	c0.368,0.163,0.512,0.457,0.388,0.825C10.903,16.961,10.457,16.882,10.05,16.86z"/>
<path fill-rule="evenodd" clip-rule="evenodd" fill="#6D5482" d="M5.14,13.985c0.054-0.15,0.065-0.376,0.17-0.438
	c0.339-0.198,0.612-0.932,0.973-0.561c0.403,0.415-0.193,0.79-0.538,1.088C5.528,14.145,5.326,14.119,5.14,13.985z"/>
<path fill-rule="evenodd" clip-rule="evenodd" fill="#684C7D" d="M11.097,13.958c-0.377-0.245-0.951-0.264-1.015-0.864
	c-0.009-0.085,0.084-0.262,0.102-0.259c0.531,0.111,0.993,0.358,1.375,0.748C11.502,13.829,11.3,13.895,11.097,13.958z"/>
<path fill-rule="evenodd" clip-rule="evenodd" fill="#F8F8FA" d="M11.097,13.958c0.203-0.063,0.405-0.13,0.461-0.375
	c0.311-0.006,0.635-0.015,0.715,0.381c0.037,0.186-0.103,0.322-0.271,0.376C11.599,14.472,11.272,14.387,11.097,13.958z"/>
<path fill-rule="evenodd" clip-rule="evenodd" fill="#F0F4FC" d="M5.14,13.985c0.187,0.134,0.389,0.16,0.605,0.09
	c0.121,0.688-0.278,0.792-0.823,0.729c-0.23-0.154-0.184-0.394-0.188-0.617C4.87,14.12,5.004,14.052,5.14,13.985z"/>
</svg>
