<?xml version="1.0" encoding="utf-8"?>
<!-- Generator: Adobe Illustrator 16.0.0, SVG Export Plug-In . SVG Version: 6.00 Build 0)  -->
<!DOCTYPE svg PUBLIC "-//W3C//DTD SVG 1.1//EN" "http://www.w3.org/Graphics/SVG/1.1/DTD/svg11.dtd">
<svg version="1.1" id="logo_xA0_이미지_1_" xmlns="http://www.w3.org/2000/svg" xmlns:xlink="http://www.w3.org/1999/xlink"
	 x="0px" y="0px" width="500px" height="150px" viewBox="0 0 500 150" enable-background="new 0 0 500 150" xml:space="preserve">
<g>
	<path fill-rule="evenodd" clip-rule="evenodd" fill="#5F40A8" d="M42.618,110.486c-7.369-0.637-13.383-0.338-19.311-1.481
		c-1.736-0.335-3.316-0.611-3.999-2.414c-0.704-1.86,0.437-3.17,1.564-4.437c3.628-4.078,4.333-9.971,2.103-15.339
		c-5.089-12.25-1.105-23.06,6.571-32.439c10.683-13.054,24.596-19.211,41.629-15.335c12.133,2.76,21.288,9.505,24.506,22.185
		c1.836,7.236,4.632,13.664,9.896,19.167c4.263,4.455,1.835,13.038-4.678,16.459c-12.148,6.381-25.119,10.443-38.776,12.017
		C55.187,109.668,48.199,110.035,42.618,110.486z M59.117,102.4c6.561-0.202,12.418-0.207,18.124-1.442
		c7.759-1.68,15.685-3.001,22.339-7.874c4.654-3.41,5.18-7.028,1.813-11.577c-4.182-5.653-7.502-11.631-8.671-18.796
		c-1.257-7.699-6.016-13.245-12.788-16.886c-19.662-10.57-42.229-3.272-51.773,16.939c-3.544,7.505-5.657,15.509-0.87,23.383
		c2.409,3.962,5.338,7.604,7.329,11.839c0.939,1.999,2.679,2.845,4.83,2.996C46.251,101.461,53.051,101.962,59.117,102.4z"/>
	<path fill-rule="evenodd" clip-rule="evenodd" fill="#6A4E7D" d="M123.841,96.902c-0.791-4.276-4.654-6.758-6.149-10.684
		c-4.569-12-0.695-22.475,6.658-31.568c10.439-12.911,24.051-19.304,41.004-15.752c12.833,2.688,22.224,9.654,25.511,22.955
		c1.712,6.93,4.417,13.084,9.516,18.257c3.844,3.9,2.428,10.993-2.487,15.537c-4.23,3.912-9.361,6.225-14.676,7.959
		c-4.22,1.378-8.717,1.907-13.092,2.814c-4.448-0.841-8.899,0.178-13.301,0.059C145.079,106.162,131.955,109.913,123.841,96.902z
		 M154.295,102.413c6.412-0.249,12.102-0.215,17.65-1.411c7.762-1.673,15.685-2.943,22.382-7.756
		c5.018-3.605,5.556-6.999,1.953-11.901c-4.063-5.526-7.484-11.322-8.467-18.347c-0.71-5.08-3.229-9.392-7.064-12.85
		c-16.115-14.53-45.183-13.473-58.043,13.721c-3.159,6.682-4.901,13.976-1.014,21.131c2.529,4.655,5.495,9.073,8.283,13.586
		c0.95,1.537,2.429,2.232,4.174,2.363C141.115,101.468,148.082,101.963,154.295,102.413z"/>
	<path fill-rule="evenodd" clip-rule="evenodd" fill="#346D1E" d="M218.749,97.035c0.051-2.962-2.302-4.652-3.731-6.774
		c-3.934-5.838-5.121-12.135-3.66-18.941c4.366-20.344,26.163-38.779,51.553-31.93c11.501,3.104,20.158,10.16,22.973,22.511
		c1.583,6.947,4.395,13.048,9.491,18.197c3.927,3.968,2.481,11.788-2.886,15.767c-6.715,4.978-14.118,8.566-22.614,9.383
		c-1.974,0.01-3.975-0.189-5.916,0.066c-7.203,0.95-14.428,2.228-21.682,1.607C233.469,106.168,223.785,106.972,218.749,97.035z
		 M249.607,102.438c3.548-0.161,6.903-0.091,10.197-0.505c10.39-1.307,20.791-2.747,29.736-8.855
		c4.798-3.275,5.252-6.999,1.881-11.536c-4.194-5.645-7.667-11.593-8.657-18.796c-0.674-4.904-3.176-9.06-6.836-12.43
		c-15.891-14.631-45.184-13.801-58.118,13.363c-3.431,7.204-5.138,14.966-0.551,22.451c2.422,3.952,5.366,7.584,7.34,11.828
		c0.937,2.015,2.656,2.869,4.809,3.021C236.214,101.461,243.019,101.96,249.607,102.438z"/>
	<path fill-rule="evenodd" clip-rule="evenodd" fill="#A9475C" d="M314.774,96.998c-0.6-4.358-4.572-6.782-6.052-10.695
		c-4.611-12.19-0.694-22.782,6.877-31.986c10.716-13.027,24.642-19.18,41.667-15.256c11.903,2.743,21.026,9.298,24.277,21.79
		c1.917,7.364,4.627,14.046,10.1,19.626c3.652,3.726,1.987,10.714-2.703,15.148c-4.768,4.508-11.06,5.796-16.8,8.229
		c-1.941,0.823-4.174,0.96-6.274,1.41c-6.114-0.408-12.101,1.387-18.146,1.288C335.938,106.358,323.003,109.618,314.774,96.998z
		 M345.005,102.392c6.776-0.181,12.639-0.194,18.336-1.452c7.583-1.675,15.35-2.915,21.905-7.644
		c4.953-3.572,5.586-7.137,2.086-11.871c-4.183-5.657-7.454-11.655-8.636-18.813c-1.271-7.698-6.068-13.221-12.85-16.838
		c-19.709-10.512-42.265-3.145-51.725,17.084c-3.596,7.689-5.657,15.825-0.516,23.8c2.338,3.625,4.994,7.038,6.808,10.989
		c0.996,2.169,2.765,3.19,5.139,3.351C332.354,101.456,339.152,101.969,345.005,102.392z"/>
	<path fill-rule="evenodd" clip-rule="evenodd" fill="#C96E50" d="M407.786,96.926c-0.756-4.293-4.602-6.806-6.099-10.723
		c-4.587-11.999-0.699-22.478,6.664-31.568c10.592-13.075,24.4-19.444,41.516-15.658c12.594,2.785,21.817,9.782,25.013,22.892
		c1.692,6.942,4.47,13.063,9.516,18.28c3.308,3.419,2.595,7.666,0.55,11.615c-1.914,3.695-5.151,6.442-8.708,7.951
		c-5.591,2.371-11.403,4.455-17.507,5.347c-5.934,0.505-11.878,1.509-17.804,1.411C429.098,106.278,416.021,109.797,407.786,96.926z
		 M438.08,102.376c6.656-0.2,12.338-0.201,17.889-1.378c7.937-1.684,16.026-3.026,22.789-8.056
		c4.461-3.318,4.959-6.933,1.791-11.228c-4.166-5.649-7.78-11.538-8.742-18.757c-0.654-4.915-3.093-9.091-6.728-12.484
		c-15.745-14.7-45.054-14.125-58.164,12.968c-3.31,6.84-5.11,14.249-1.195,21.581c2.493,4.669,5.482,9.075,8.281,13.58
		c0.947,1.525,2.432,2.223,4.184,2.35C425.147,101.459,432.112,101.95,438.08,102.376z"/>
	<path fill-rule="evenodd" clip-rule="evenodd" fill="#EE567A" d="M314.774,96.998c8.229,12.62,21.164,9.36,32.946,9.554
		c6.045,0.099,12.031-1.696,18.146-1.288c-18.734,5.331-37.757,6.388-57.005,3.723c-4.139-0.572-5.16-3.519-2.249-6.633
		C308.854,99.955,311.379,97.75,314.774,96.998z"/>
	<path fill-rule="evenodd" clip-rule="evenodd" fill="#699A32" d="M218.749,97.035c5.036,9.937,14.72,9.133,23.527,9.886
		c7.254,0.62,14.479-0.657,21.682-1.607c1.941-0.256,3.942-0.057,5.916-0.066c-18.727,5.368-37.753,6.343-56.992,3.74
		c-4.179-0.565-5.183-3.479-2.247-6.603C212.868,100.009,215.303,97.687,218.749,97.035z"/>
	<path fill-rule="evenodd" clip-rule="evenodd" fill="#FDC330" d="M407.786,96.926c8.234,12.871,21.312,9.353,33.141,9.547
		c5.926,0.098,11.87-0.906,17.804-1.411c-13.319,4.695-27.19,5.281-41.086,5.241c-5.099-0.014-10.264-0.106-15.334-1.202
		c-1.692-0.366-3.324-0.528-4.039-2.321c-0.811-2.032,0.263-3.609,1.662-4.835C402.284,99.886,404.577,97.669,407.786,96.926z"/>
	<path fill-rule="evenodd" clip-rule="evenodd" fill="#3D62ED" d="M123.841,96.902c8.114,13.011,21.238,9.26,32.983,9.577
		c4.401,0.119,8.853-0.899,13.301-0.059c-17.263,4.298-34.713,5.018-52.298,2.564c-4.148-0.579-5.111-3.524-2.157-6.669
		C117.928,99.913,120.478,97.738,123.841,96.902z"/>
	<path fill-rule="evenodd" clip-rule="evenodd" fill="#FAFAFB" d="M59.117,102.4c-6.066-0.438-12.866-0.939-19.667-1.418
		c-2.151-0.151-3.891-0.997-4.83-2.996c-1.991-4.235-4.92-7.877-7.329-11.839c-4.787-7.874-2.674-15.878,0.87-23.383
		c9.545-20.212,32.111-27.51,51.773-16.939c6.772,3.641,11.531,9.187,12.788,16.886c1.169,7.165,4.489,13.143,8.671,18.796
		c3.366,4.549,2.841,8.167-1.813,11.577c-6.654,4.873-14.58,6.194-22.339,7.874C71.535,102.193,65.678,102.198,59.117,102.4z
		 M32.647,67.966c-2.994,5.215-1.563,10.462,0.542,15.324c7.19,16.609,30.342,21.979,44.464,10.548
		c6.598-5.342,10.572-12.194,10.193-20.688c-0.583-13.058-11.261-23.33-25.567-25.006c-10.663-1.249-25.877,5.454-29.352,17.729
		C32.834,66.571,32.74,67.269,32.647,67.966z"/>
	<path fill-rule="evenodd" clip-rule="evenodd" fill="#FAFAFB" d="M154.295,102.413c-6.213-0.45-13.18-0.945-20.146-1.464
		c-1.745-0.131-3.224-0.826-4.174-2.363c-2.788-4.513-5.754-8.931-8.283-13.586c-3.888-7.155-2.146-14.449,1.014-21.131
		c12.86-27.193,41.928-28.251,58.043-13.721c3.835,3.458,6.354,7.77,7.064,12.85c0.982,7.024,4.404,12.82,8.467,18.347
		c3.603,4.902,3.064,8.296-1.953,11.901c-6.697,4.813-14.62,6.083-22.382,7.756C166.396,102.198,160.707,102.164,154.295,102.413z
		 M130.029,81.883l0.352-0.075l0.359,0.021c1.44,0.24,3.207,0.006,3.777,1.804c0.355,1.121-0.501,2.024-1.539,2.17
		c-4.414,0.622-2.26,2.314-0.733,3.98c10.276,11.217,26.099,13.293,38.978,5.104c10.29-6.542,14.453-19.969,9.477-30.56
		c-9.123-19.414-37.911-21.874-50.146-4.135c-4.322,6.267-5.927,13.342-3.34,20.863C127.65,82.328,128.084,85.098,130.029,81.883z"
		/>
	<path fill-rule="evenodd" clip-rule="evenodd" fill="#FAFAFB" d="M249.607,102.438c-6.589-0.478-13.394-0.977-20.199-1.458
		c-2.152-0.152-3.872-1.007-4.809-3.021c-1.974-4.244-4.918-7.876-7.34-11.828c-4.587-7.485-2.88-15.247,0.551-22.451
		c12.935-27.164,42.228-27.994,58.118-13.363c3.66,3.37,6.162,7.525,6.836,12.43c0.99,7.203,4.463,13.151,8.657,18.796
		c3.371,4.537,2.917,8.261-1.881,11.536c-8.945,6.108-19.347,7.549-29.736,8.855C256.511,102.347,253.155,102.276,249.607,102.438z
		 M249.738,48.013c-15.232-0.117-28.729,12.099-28.722,25.998c0.007,13.721,13.204,25.859,28.245,25.977
		c15.233,0.118,28.729-12.098,28.722-25.999C277.977,60.267,264.777,48.129,249.738,48.013z"/>
	<path fill-rule="evenodd" clip-rule="evenodd" fill="#FAFAFB" d="M345.005,102.392c-5.853-0.423-12.65-0.936-19.452-1.394
		c-2.374-0.16-4.143-1.182-5.139-3.351c-1.813-3.951-4.47-7.364-6.808-10.989c-5.142-7.975-3.08-16.11,0.516-23.8
		c9.46-20.229,32.016-27.596,51.725-17.084c6.781,3.617,11.578,9.14,12.85,16.838c1.182,7.157,4.453,13.155,8.636,18.813
		c3.5,4.734,2.867,8.299-2.086,11.871c-6.556,4.729-14.322,5.969-21.905,7.644C357.644,102.197,351.781,102.211,345.005,102.392z
		 M345.522,99.993c14.896-0.009,28.321-12.161,28.47-25.767c0.149-13.777-13.394-26.23-28.516-26.22
		c-14.896,0.01-28.32,12.16-28.469,25.767C316.857,87.547,330.404,100.003,345.522,99.993z"/>
	<path fill-rule="evenodd" clip-rule="evenodd" fill="#FAFAFB" d="M438.08,102.376c-5.968-0.426-12.933-0.917-19.896-1.424
		c-1.752-0.127-3.236-0.824-4.184-2.35c-2.799-4.505-5.788-8.911-8.281-13.58c-3.915-7.332-2.114-14.741,1.195-21.581
		c13.11-27.093,42.419-27.668,58.164-12.968c3.635,3.394,6.073,7.569,6.728,12.484c0.962,7.219,4.576,13.107,8.742,18.757
		c3.168,4.295,2.67,7.909-1.791,11.228c-6.763,5.029-14.853,6.372-22.789,8.056C450.418,102.175,444.736,102.176,438.08,102.376z
		 M438.389,99.989c15.209,0.054,28.69-12.264,28.597-26.128c-0.094-13.706-13.366-25.798-28.375-25.851
		c-15.211-0.054-28.688,12.26-28.596,26.127C410.105,87.844,423.379,99.937,438.389,99.989z"/>
	<path fill-rule="evenodd" clip-rule="evenodd" fill="#BFBBFD" d="M32.928,65.874c3.475-12.275,18.688-18.979,29.352-17.729
		C76.586,49.82,87.264,60.093,87.847,73.15c0.379,8.493-3.596,15.346-10.193,20.688C63.531,105.27,40.38,99.899,33.189,83.29
		c-2.105-4.862-3.536-10.109-0.542-15.323c3.054,2.497,6.071,5.041,9.184,7.463c0.903,0.704,2.235,1.205,2.958-0.199
		c0.52-1.009-0.279-1.829-1.161-2.438C40.132,70.377,37.004,67.394,32.928,65.874z M49.242,78.812
		c-0.229,1.933-0.019,3.595,2.118,3.153c3.515-0.728,8.153-1.545,9.028-4.78c0.501-1.854-3.925-5.856-6.994-5.856
		C48.809,71.327,50.83,76.516,49.242,78.812z M80.128,62.673c-0.696-1.418-1.651-2.169-2.803-1.119
		c-3.31,3.014-6.506,6.153-9.695,9.295c-0.761,0.749-1.002,1.84-0.216,2.679c1.063,1.134,2.133,0.47,3.001-0.396
		c2.816-2.813,5.614-5.646,8.377-8.512C79.343,64.048,79.707,63.297,80.128,62.673z M47.404,66.176
		c-2.583,0.853-4.985,0.68-8.105-1.224C43.088,70.094,44.589,70.224,47.404,66.176z"/>
	<path fill-rule="evenodd" clip-rule="evenodd" fill="#5F40A8" d="M32.928,65.874c4.076,1.52,7.204,4.503,10.7,6.918
		c0.882,0.609,1.681,1.43,1.161,2.438c-0.723,1.404-2.055,0.903-2.958,0.199c-3.112-2.422-6.13-4.966-9.184-7.463
		C32.74,67.269,32.834,66.571,32.928,65.874z"/>
	<path fill-rule="evenodd" clip-rule="evenodd" fill="#C2DDFD" d="M130.029,81.883c-1.945,3.215-2.379,0.445-2.816-0.826
		c-2.587-7.521-0.982-14.597,3.34-20.863c12.235-17.739,41.023-15.279,50.146,4.135c4.977,10.591,0.813,24.018-9.477,30.56
		c-12.879,8.188-28.701,6.112-38.978-5.104c-1.526-1.666-3.681-3.358,0.733-3.98c1.038-0.146,1.895-1.049,1.539-2.17
		c-0.57-1.798-2.337-1.563-3.777-1.804c2.08-0.95,4.172-1.875,6.234-2.86c1.088-0.521,2.401-1.594,1.038-2.485
		c-1.511-0.988-1.355-1.145-0.399-2.465c0.933-1.287-0.343-2.352-1.63-1.937c-2.641,0.851-5.584,1.472-7.146,4.67
		c1.433,0.188,2.501,0.329,3.656,0.48C132.029,79.107,128.419,79.129,130.029,81.883z M171.011,79.446
		c2.673-1.939-3.218-5.025,0.906-6.771c-0.357-0.324-0.662-0.813-1.081-0.947c-2.829-0.91-5.668-1.795-8.535-2.573
		c-0.765-0.207-2.292,0.227-1.998,0.788c1.122,2.147-1.669,5.943,3.053,6.676c2.363,0.367,4.541,1.93,6.802,2.952
		c-0.138,1.628-0.55,3.464,1.61,4.052c1.066,0.291,1.872-0.539,2.085-1.604C174.325,79.655,171.973,80.297,171.011,79.446z"/>
	<path fill-rule="evenodd" clip-rule="evenodd" fill="#6A4E7D" d="M130.029,81.883c-1.61-2.754,2-2.775,2.465-4.65
		c-1.155-0.151-2.224-0.292-3.656-0.48c1.562-3.198,4.505-3.819,7.146-4.67c1.287-0.415,2.563,0.649,1.63,1.937
		c-0.956,1.32-1.111,1.477,0.399,2.465c1.363,0.892,0.05,1.965-1.038,2.485c-2.063,0.985-4.154,1.91-6.234,2.86l-0.359-0.021
		L130.029,81.883z"/>
	<path fill-rule="evenodd" clip-rule="evenodd" fill="#EAFD9D" d="M249.738,48.013c15.039,0.116,28.238,12.254,28.245,25.976
		c0.008,13.901-13.488,26.117-28.722,25.999c-15.041-0.117-28.238-12.256-28.245-25.977
		C221.01,60.111,234.506,47.896,249.738,48.013z M256.848,74.066c4.967,0.007,8.729-3.154,8.35-6.747
		c-0.38-3.609-2.603-5.646-6.342-5.665c-4.001-0.021-7.14,3.053-6.979,6.813C252.031,72.076,254.271,73.644,256.848,74.066z
		 M236.097,70.716c0.417-4.043-1.638-6.283-5.55-6.559c-3.072-0.217-6.616,3.624-6.591,6.898c0.032,4.13,2.563,5.794,6.379,5.946
		C234.661,77.173,236.199,74.716,236.097,70.716z M239.119,75.969c1.745,2.084,3.771,1.638,5.636,1.667
		c0.963,0.016,2.127-0.11,2.191-1.376c0.093-1.811-1.412-1.483-2.44-1.416C242.805,74.955,240.948,74.367,239.119,75.969z"/>
	<path fill-rule="evenodd" clip-rule="evenodd" fill="#FDDFDE" d="M345.522,99.993c-15.118,0.01-28.665-12.446-28.515-26.22
		c0.148-13.606,13.573-25.757,28.469-25.767c15.122-0.011,28.665,12.442,28.516,26.22C373.844,87.832,360.418,99.984,345.522,99.993
		z M354.317,74.067c3.981-0.057,7.259-3.146,6.947-6.853c-0.341-4.06-3.267-5.641-6.844-5.895c-3.821-0.271-6.799,2.689-6.854,6.346
		C347.512,71.18,350.612,74.119,354.317,74.067z M332.052,69.622c-0.08-2.853-1.438-5.312-5.146-5.547
		c-3.34-0.212-7.012,3.667-6.948,7.173c0.066,3.638,2.284,5.445,5.625,5.762C328.989,77.332,331.944,74.036,332.052,69.622z
		 M335.561,71.148c1.158,4.377,3.08,6.009,5.455,5.558c2.505-0.476,3.228-2.881,2.807-6.209
		C341.565,73.313,339.265,74.178,335.561,71.148z"/>
	<path fill-rule="evenodd" clip-rule="evenodd" fill="#FEEEA5" d="M438.389,99.989c-15.01-0.053-28.283-12.146-28.374-25.852
		c-0.092-13.867,13.385-26.181,28.596-26.127c15.009,0.053,28.281,12.145,28.375,25.851
		C467.079,87.726,453.598,100.043,438.389,99.989z M454.144,66.669c-0.161-3.071-2.436-4.718-6.083-4.802
		c-4.269-0.1-7.107,2.495-7.152,6.425c-0.043,3.871,2.144,5.816,5.717,6.141C450.544,74.787,454.111,71.332,454.144,66.669z
		 M425.093,70.164c0.072-3.479-1.994-5.87-5.221-6.044c-3.299-0.177-6.992,3.563-6.903,7.107c0.09,3.579,2.166,5.503,5.585,5.688
		C422.044,77.105,425.016,73.855,425.093,70.164z M438.806,77.937c0.136-3.33-2.711-6.654-5.639-6.605
		c-3.262,0.054-3.117,3.07-3.602,5.108c-0.588,2.476,3.746,7.74,6.176,7.444C439.607,83.412,437.939,79.761,438.806,77.937z"/>
	<path fill-rule="evenodd" clip-rule="evenodd" fill="#5F40A8" d="M49.242,78.812c1.588-2.296-0.434-7.484,4.152-7.483
		c3.069,0,7.495,4.002,6.994,5.856c-0.875,3.235-5.514,4.053-9.028,4.78C49.224,82.406,49.014,80.744,49.242,78.812z M53.404,73.712
		c-0.524,1.534-1.545,2.899-0.913,5.048c1.503-0.578,3.136-0.553,4.162-2.123C55.927,75.293,55.004,74.202,53.404,73.712z"/>
	<path fill-rule="evenodd" clip-rule="evenodd" fill="#5F40A8" d="M80.128,62.673c-0.421,0.624-0.785,1.375-1.336,1.946
		c-2.763,2.866-5.561,5.698-8.377,8.512c-0.868,0.866-1.938,1.53-3.001,0.396c-0.786-0.839-0.545-1.93,0.216-2.679
		c3.189-3.142,6.386-6.281,9.695-9.295C78.477,60.504,79.432,61.255,80.128,62.673z"/>
	<path fill-rule="evenodd" clip-rule="evenodd" fill="#5F40A8" d="M47.404,66.176c-2.815,4.048-4.316,3.918-8.105-1.224
		C42.419,66.855,44.821,67.028,47.404,66.176z"/>
	<path fill-rule="evenodd" clip-rule="evenodd" fill="#6A4E7D" d="M170.157,79.571c-2.261-1.022-4.438-2.585-6.802-2.952
		c-4.722-0.732-1.931-4.528-3.053-6.676c-0.294-0.562,1.233-0.995,1.998-0.788c2.867,0.778,5.706,1.663,8.535,2.573
		c0.419,0.135,0.724,0.623,1.081,0.947c-4.124,1.745,1.767,4.831-0.906,6.771C170.719,79.435,170.435,79.477,170.157,79.571z"/>
	<path fill-rule="evenodd" clip-rule="evenodd" fill="#FAFAFB" d="M170.157,79.571c0.277-0.095,0.562-0.137,0.854-0.125
		c0.962,0.851,3.314,0.209,2.842,2.573c-0.213,1.064-1.019,1.895-2.085,1.604C169.607,83.035,170.02,81.199,170.157,79.571z"/>
	<path fill-rule="evenodd" clip-rule="evenodd" fill="#346D1E" d="M256.848,74.066c-2.577-0.423-4.816-1.99-4.971-5.6
		c-0.161-3.76,2.978-6.833,6.979-6.813c3.739,0.02,5.962,2.056,6.342,5.665C265.576,70.912,261.814,74.073,256.848,74.066z
		 M263.022,67.264c-0.702-2.539-2.941-3.108-4.991-2.967c-1.998,0.137-4.031,1.697-3.736,3.81c0.262,1.866,1.243,4.301,4.18,3.816
		C261.051,71.498,262.526,69.926,263.022,67.264z"/>
	<path fill-rule="evenodd" clip-rule="evenodd" fill="#346D1E" d="M236.097,70.716c0.103,4-1.436,6.457-5.762,6.286
		c-3.815-0.152-6.347-1.816-6.379-5.946c-0.025-3.274,3.519-7.115,6.591-6.898C234.459,64.433,236.514,66.673,236.097,70.716z
		 M230.739,66.319c-2.547,0.476-4.069,2.256-4.47,4.614c-0.342,2.007,1.168,3.689,3.071,3.734c2.781,0.064,4.479-1.599,4.659-4.608
		C234.145,67.676,232.584,66.96,230.739,66.319z"/>
	<path fill-rule="evenodd" clip-rule="evenodd" fill="#346D1E" d="M239.119,75.969c1.829-1.602,3.686-1.014,5.387-1.125
		c1.028-0.067,2.533-0.395,2.44,1.416c-0.064,1.266-1.229,1.392-2.191,1.376C242.89,77.606,240.864,78.053,239.119,75.969z"/>
	<path fill-rule="evenodd" clip-rule="evenodd" fill="#A9475C" d="M354.317,74.067c-3.705,0.052-6.806-2.888-6.751-6.401
		c0.056-3.656,3.033-6.617,6.854-6.346c3.577,0.254,6.503,1.835,6.844,5.895C361.576,70.922,358.299,74.011,354.317,74.067z
		 M354.825,71.238c2.489-0.218,4.271-1.495,4.02-4.015c-0.268-2.7-2.938-2.872-4.945-3.105c-2.407-0.279-3.823,1.529-3.658,3.639
		C350.431,70.18,352.459,71.173,354.825,71.238z"/>
	<path fill-rule="evenodd" clip-rule="evenodd" fill="#A9475C" d="M332.052,69.622c-0.107,4.414-3.063,7.71-6.469,7.388
		c-3.341-0.316-5.559-2.124-5.625-5.762c-0.063-3.506,3.608-7.385,6.948-7.173C330.614,64.311,331.972,66.77,332.052,69.622z
		 M329.779,70.019c-0.294-2.031-1.188-3.901-3.336-3.591c-2.491,0.361-4.074,2.406-4.193,4.914
		c-0.092,1.924,1.409,2.878,3.354,2.804C328.26,74.044,329.227,72.223,329.779,70.019z"/>
	<path fill-rule="evenodd" clip-rule="evenodd" fill="#A9475C" d="M335.561,71.148c3.704,3.029,6.005,2.165,8.262-0.651
		c0.421,3.328-0.302,5.733-2.807,6.209C338.641,77.157,336.719,75.525,335.561,71.148z"/>
	<path fill-rule="evenodd" clip-rule="evenodd" fill="#C96E50" d="M454.144,66.669c-0.032,4.663-3.6,8.118-7.519,7.764
		c-3.573-0.324-5.76-2.27-5.717-6.141c0.045-3.93,2.884-6.524,7.152-6.425C451.708,61.951,453.982,63.598,454.144,66.669z
		 M447.507,64.038c-2.191,0.573-3.661,1.89-3.73,4.347c-0.065,2.263,1.413,3.212,3.445,3.254c2.771,0.059,4.37-1.771,4.601-4.175
		C452.075,64.828,449.361,64.935,447.507,64.038z"/>
	<path fill-rule="evenodd" clip-rule="evenodd" fill="#C96E50" d="M425.093,70.164c-0.077,3.691-3.049,6.941-6.539,6.752
		c-3.419-0.186-5.495-2.109-5.585-5.688c-0.089-3.545,3.604-7.284,6.903-7.107C423.099,64.294,425.165,66.686,425.093,70.164z
		 M418.651,74.017c1.525-0.867,4.176-0.993,4.325-4.11c0.096-2.005-1.182-3.451-2.859-3.491c-2.919-0.07-4.438,2.144-4.866,4.765
		C414.959,72.968,416.407,73.755,418.651,74.017z"/>
	<path fill-rule="evenodd" clip-rule="evenodd" fill="#C96E50" d="M438.806,77.937c-0.866,1.824,0.802,5.476-3.064,5.947
		c-2.43,0.296-6.764-4.969-6.176-7.444c0.484-2.038,0.34-5.055,3.602-5.108C436.095,71.282,438.941,74.606,438.806,77.937z
		 M433.783,74.482c-1.22-0.045-1.37,1.028-1.523,1.933c-0.269,1.582,0.834,2.55,2.044,2.956c1.517,0.509,1.27-1.004,1.455-1.831
		C436.106,75.99,435.291,75.074,433.783,74.482z"/>
	<path fill-rule="evenodd" clip-rule="evenodd" fill="#EE567A" d="M53.404,73.712c1.6,0.49,2.522,1.581,3.249,2.925
		c-1.026,1.57-2.659,1.545-4.162,2.123C51.859,76.611,52.88,75.246,53.404,73.712z"/>
	<path fill-rule="evenodd" clip-rule="evenodd" fill="#FAFAFB" d="M263.022,67.264c-0.496,2.662-1.972,4.234-4.548,4.659
		c-2.937,0.484-3.918-1.95-4.18-3.816c-0.295-2.112,1.738-3.673,3.736-3.81C260.081,64.155,262.32,64.725,263.022,67.264z"/>
	<path fill-rule="evenodd" clip-rule="evenodd" fill="#FAFAFB" d="M230.739,66.319c1.845,0.641,3.405,1.356,3.261,3.74
		c-0.181,3.01-1.878,4.673-4.659,4.608c-1.903-0.045-3.413-1.728-3.071-3.734C226.67,68.575,228.192,66.795,230.739,66.319z"/>
	<path fill-rule="evenodd" clip-rule="evenodd" fill="#FAFAFB" d="M354.825,71.238c-2.366-0.065-4.395-1.059-4.584-3.481
		c-0.165-2.109,1.251-3.918,3.658-3.639c2.008,0.233,4.678,0.405,4.945,3.105C359.096,69.743,357.314,71.021,354.825,71.238z"/>
	<path fill-rule="evenodd" clip-rule="evenodd" fill="#FAFAFB" d="M329.779,70.019c-0.553,2.204-1.52,4.025-4.176,4.127
		c-1.944,0.074-3.445-0.88-3.354-2.804c0.119-2.508,1.702-4.553,4.193-4.914C328.592,66.117,329.485,67.987,329.779,70.019z"/>
	<path fill-rule="evenodd" clip-rule="evenodd" fill="#FAFAFB" d="M447.507,64.038c1.854,0.896,4.568,0.79,4.315,3.426
		c-0.23,2.403-1.829,4.233-4.601,4.175c-2.032-0.042-3.511-0.991-3.445-3.254C443.846,65.928,445.315,64.611,447.507,64.038z"/>
	<path fill-rule="evenodd" clip-rule="evenodd" fill="#FAFAFB" d="M418.651,74.017c-2.244-0.262-3.692-1.049-3.4-2.837
		c0.428-2.621,1.947-4.835,4.866-4.765c1.678,0.04,2.955,1.486,2.859,3.491C422.827,73.023,420.177,73.149,418.651,74.017z"/>
	<path fill-rule="evenodd" clip-rule="evenodd" fill="#FDDFDE" d="M433.783,74.482c1.508,0.592,2.323,1.508,1.976,3.058
		c-0.186,0.827,0.062,2.34-1.455,1.831c-1.21-0.406-2.313-1.374-2.044-2.956C432.413,75.511,432.563,74.438,433.783,74.482z"/>
</g>
</svg>
